<svg width="1895" height="1854" viewBox="0 0 1895 1854" fill="none" xmlns="http://www.w3.org/2000/svg">
<g opacity="0.12">
<path fill-rule="evenodd" clip-rule="evenodd" d="M694.837 670.339C694.729 645.921 651.655 618.463 633.255 604.306C596.874 576.307 559.036 550.45 521.549 524.181C484.061 497.912 446.473 471.714 410.726 442.874C387.516 424.153 360.244 403.068 344.502 376.336C310.969 319.368 416.697 327.828 444.084 326.582C513.756 323.399 593.669 324.852 658.975 295.186C697.96 277.476 713.506 247.774 705.133 204.486C702.434 190.408 694.445 174.208 701.213 160.493C708.439 145.845 725.064 137.392 738.862 131.724C789.189 111.073 847.053 108.681 900.302 106.089C957.72 103.24 1015.68 104.074 1072.69 103.853C1096.87 103.76 1122.12 94.5955 1145.14 87.147C1175.32 77.3842 1205.14 66.418 1235.07 55.8148C1300.92 32.5436 1368.77 8.03325 1438.43 2.12286C1482.06 -1.58004 1529.74 3.426 1563.63 35.6341C1580.65 51.8058 1589.55 75.8461 1599.39 97.2018C1611.3 123.001 1622.74 149.049 1635.41 174.443C1676.26 256.227 1734.56 336.145 1829.21 340.162C1843.52 340.767 1857.59 338.794 1871.84 338.424C1880.91 338.196 1888.99 340.511 1892.36 350.53C1900.84 375.66 1874.18 415.33 1863.25 435.269C1839.32 478.913 1812.33 520.599 1787.05 563.368C1770.32 591.652 1741.37 630.305 1741.07 664.671C1740.8 695.291 1779.39 717.423 1800.4 732.505C1820.09 746.626 1855.76 766.386 1857.92 795.112C1858.97 809.041 1850.27 820.584 1841.18 829.542C1825.25 845.208 1806.89 856.26 1792.56 874.133C1769.06 903.458 1749.43 943.805 1752.62 983.319C1754.83 1010.7 1769.64 1028.63 1788.47 1045.77C1796.38 1052.98 1802.81 1058.07 1803.22 1069.77C1803.9 1088.35 1797 1108.01 1791.32 1125.24C1771 1186.89 1742.13 1246.5 1710.03 1302.15C1693.98 1329.97 1676.65 1357.7 1655.37 1381.42C1641.44 1397 1622.65 1415.55 1601.4 1415.53C1576.79 1415.53 1550.75 1406.15 1526.83 1399.15C1482.16 1386.05 1438.03 1370.91 1394.07 1355.38C1292.41 1319.45 1191.71 1280.61 1091.96 1238.85C1021.7 1209.4 949.954 1179.89 883.9 1140.73C871.017 1133.04 858.858 1124.07 847.586 1113.95C835.542 1103.31 820.597 1098.56 805.443 1095.01C711.387 1073 608.344 1089.9 513.897 1100.49C489.924 1103.18 465.952 1105.88 441.911 1107.76C421.245 1109.37 396.503 1114.01 376.417 1107.05C336.838 1093.34 371.437 1042.81 386.065 1022.23C437.566 949.744 504.013 888.418 565.601 825.811C594.884 795.995 624.389 766.258 652.08 734.755C666.498 718.377 694.931 691.744 694.837 670.339Z" stroke="#727272"/>
<path fill-rule="evenodd" clip-rule="evenodd" d="M712.584 666.223C696.799 640.385 669.103 621.288 646.113 603.315C613.029 577.442 578.905 553.007 545.295 527.867C513.514 504.093 481.666 480.049 452.235 453.051C434.288 436.588 411.771 416.9 403.271 392.55C384.831 339.771 484.029 347.779 508.518 346.398C569.399 342.982 638.423 342.199 694.746 314.411C729.916 297.057 744.365 268.28 736.864 228.328C734.271 214.505 729.599 202.704 735.514 188.952C742.353 173.037 758.085 163.115 772.507 156.111C817.683 134.166 871.083 129.504 920.054 125.625C970.645 121.618 1023.36 118.792 1072.32 121.725C1091.9 122.892 1114.44 116.265 1133.82 111.183C1163.63 103.353 1193.14 94.3209 1222.81 85.9219C1283.11 68.8392 1344.97 52.3829 1407.69 50.5109C1452.97 49.1585 1500.19 56.4898 1537.87 84.8258C1576.05 113.56 1592.99 158.104 1614.16 200.447C1650.73 273.654 1700.12 362.662 1784.72 378.129C1797.55 380.478 1809.88 379.204 1822.69 379.781C1829.28 380.072 1836.78 380.998 1840.12 387.852C1848.8 405.647 1825.03 438.182 1817.03 451.813C1794.92 489.48 1770.07 525.304 1746.9 562.246C1728.5 591.578 1705.18 624.171 1698.07 658.941C1689.43 701.135 1745.85 731.158 1765.7 760.868C1800.1 812.387 1734.92 841.74 1702.79 866.304C1665.89 894.505 1635.44 945.952 1668.51 989.584C1681.17 1006.27 1696.74 1016.21 1702.39 1037.99C1711.22 1072.04 1704.54 1110.95 1697.37 1144.61C1686.57 1195.21 1669.47 1245.26 1646.23 1291C1629.58 1323.74 1601.96 1375.08 1561.51 1371.23C1534.28 1368.66 1506.6 1359.27 1480.08 1350.97C1440.38 1338.55 1401.18 1324.39 1362.19 1309.69C1272.18 1275.83 1183.17 1238.51 1095.9 1197.45C1036.35 1169.43 870.26 1054.91 857.762 1050.83C820.499 1038.65 778.131 1040.8 739.713 1042.68C688.609 1045.19 637.761 1051.68 586.953 1057.69C562.769 1060.54 538.462 1064.02 514.149 1065.42C496.844 1066.42 474.117 1067.28 458.959 1056.66C429.373 1035.96 462.335 988.581 475.967 968.537C517.727 907.089 570.553 853.876 620.085 799.468C644.391 772.755 669.069 746.084 691.134 717.229C700.033 705.577 722.341 682.181 712.584 666.223Z" stroke="#727272"/>
<path fill-rule="evenodd" clip-rule="evenodd" d="M734.423 652.972C691.313 601.268 631.811 562.814 580.458 519.632C554.683 497.952 528.746 475.681 506.516 449.858C494.952 436.43 480.512 419.449 478.284 400.731C472.33 350.658 561.737 357.429 588.498 355.528C640.236 351.84 698.684 349.042 745.623 323.489C774.3 307.868 788.423 282.229 783.063 248.531C780.687 233.58 776.987 220.878 783.063 206.197C789.22 191.324 802.046 180.829 815.035 172.962C852.36 150.335 898.745 143.101 940.769 137.712C990.067 131.434 1039.74 128.983 1089.37 130.378C1132.85 131.581 1176.12 118.047 1218.57 109.126C1274.8 97.3138 1332.05 86.9973 1389.6 88.5565C1435.04 89.7954 1480.85 99.5281 1519.7 125.394C1559.18 151.738 1582.91 191.167 1604.31 233.715C1636.66 298.035 1676.98 384.228 1747.95 408.656C1758.27 412.216 1767.89 412.607 1778.54 413.227C1783.71 413.526 1790.39 413.618 1792.95 419.307C1799.12 433.005 1776.31 459.562 1769.94 468.818C1749.62 498.365 1727.6 526.581 1706.77 555.736C1687.33 582.955 1666.15 611.321 1654.07 643.217C1634.85 694.017 1696.3 723.721 1694.58 772.129C1693.51 802.181 1666.23 823.733 1644.62 838.642C1618.02 856.975 1579.73 869.029 1566.41 902.485C1556.5 927.404 1572.06 941.907 1584.04 960.818C1604.35 992.857 1605.73 1036.29 1603.62 1073.37C1600.77 1123.49 1589.64 1174.35 1570.69 1220.41C1562.1 1241.29 1551.58 1263.02 1536.1 1279.24C1521.59 1294.44 1507.86 1298.33 1488.47 1295.22C1429.12 1285.68 1369.19 1259.09 1312.27 1235.34C1240.76 1205.49 1170.24 1172.54 1101.82 1135.47C1055.16 1110.18 1007.45 1083.43 966.503 1048.51C955.83 1039.4 944.9 1029.5 937.096 1017.49C931.196 1008.46 928.692 1001.01 918.748 995.854C889.274 980.582 848.276 984.576 816.696 986.164C766.199 988.692 715.946 995.42 665.761 1001.48C636.476 1005.04 581.308 1016.24 557.923 989.375C537.738 966.179 562.095 926.628 574.537 906.194C606.009 854.519 646.494 809.166 684.056 762.467C701.27 741.065 719.16 719.499 733.377 695.705C737.009 689.639 742.828 681.6 743.827 674.231C744.948 665.787 739.716 659.344 734.423 652.972Z" stroke="#727272"/>
<path fill-rule="evenodd" clip-rule="evenodd" d="M738.13 665.008C698.294 619.292 650.302 581.735 607.536 538.955C588.36 519.773 568.996 499.651 554.385 476.252C546.526 463.669 538.181 447.829 540.348 432.189C546.567 387.3 620.101 391.354 649.809 388.725C693.952 384.863 744.665 380.973 783.698 356.768C809.267 340.914 818.854 317.501 814.081 287.304C808.956 254.912 820.414 231.399 846.49 213.329C879.182 190.692 920.449 181.465 958.408 174.91C1004.14 167.049 1050.45 163.565 1096.78 164.5C1141.83 165.412 1185.49 157.446 1230.24 152.265C1289.59 145.404 1350.83 142.019 1409.5 156.085C1460.59 168.333 1506.73 195.323 1541.32 237.063C1577.45 280.627 1595.33 335.513 1624.67 383.709C1642.97 413.77 1668.48 453.537 1702.68 465.222C1714.08 469.12 1734.86 463.861 1725.75 483.035C1720.55 494.001 1710.8 503.62 1703.11 512.584C1690.67 527.07 1677.82 541.156 1665.18 555.442C1638.22 585.896 1609.36 616.998 1589.16 653.059C1563.7 698.461 1601.54 733.404 1596.93 779.44C1594.45 804.215 1578.12 823.987 1560.85 839.52C1549.68 849.581 1537.45 858.295 1524.97 866.425C1511.93 874.919 1496.5 881.389 1485.13 892.369C1468.93 907.994 1475.96 926.492 1479 946.692C1484.35 982.191 1485.52 1018.25 1482.5 1054.06C1478.8 1097.94 1470.12 1143.08 1451.85 1182.96C1444.74 1198.49 1435.73 1214.94 1422.35 1225.35C1408.98 1235.76 1395.14 1235.05 1379.82 1231.92C1334.36 1222.65 1288.99 1201.1 1245.87 1180.67C1191.89 1155.1 1138.98 1126.52 1088.45 1094.01C1053.57 1071.56 1018.57 1047.32 989.392 1016.88C980.905 1008.03 972.83 998.542 966.301 987.954C961.818 980.694 959.414 971.324 952.919 965.866C932.596 948.829 891.794 953.917 867.96 954.907C820.394 956.881 773.577 966.265 726.071 968.545C700.144 969.792 659.538 972.927 640.498 949.635C622.592 927.739 638.81 893.252 649.512 872.154C670.544 830.671 698.8 793.712 724.126 755.15C734.538 739.282 745.948 722.68 752.693 704.56C758.689 688.415 748.338 676.729 738.13 665.008Z" stroke="#727272"/>
<path fill-rule="evenodd" clip-rule="evenodd" d="M747.927 665.756C716.219 625.527 677.994 589.817 646.057 548.933C627.363 524.991 595.169 484.741 609.626 450.987C625.487 413.896 680.774 412.886 712.732 409.898C750.768 406.34 795.435 401.481 827.987 378.321C838.282 371 847.052 361.309 850.769 348.545C854.75 334.884 850.398 322.93 849.832 309.255C848.644 280.567 864.876 257.536 886.357 241.719C916.715 219.356 954.677 208.783 990.534 201.412C1031.16 193.098 1072.46 188.999 1113.84 189.174C1153.39 189.316 1192.51 188.391 1232.1 187.324C1283.87 185.901 1336.37 188.199 1386.59 202.707C1436.07 217.008 1481.04 243.811 1516.37 283.235C1550.84 321.707 1574.1 368.73 1594.46 416.629C1606.02 443.815 1625.54 484.442 1653.11 498.174C1665.37 504.286 1677.4 503.867 1664.36 519.762C1647.95 539.776 1625.83 555.835 1606.82 572.954C1579.39 597.657 1551.28 622.845 1528.26 652.216C1513.56 670.971 1507.01 689.171 1508.02 713.455C1508.81 731.954 1512.35 750.261 1510.56 768.832C1506.36 812.419 1473.82 842.309 1445.05 870.143C1426.55 888.045 1409.65 901.699 1400.12 927.163C1388.85 957.26 1384.13 990.004 1376.6 1021.25C1368.33 1055.57 1358.77 1091.27 1340.72 1121.49C1324.65 1148.4 1305.1 1160.47 1275.85 1153.22C1230.23 1141.92 1185.26 1114.08 1144.75 1088.33C1103.52 1062.14 1063 1032.68 1028.84 996.671C1010.4 977.225 997.807 954.393 981.427 933.503C960.823 907.277 914.212 917.209 886.512 919.429C840.528 923.115 695.839 950.693 709.19 861.37C714.762 824.087 736.708 789.679 752.758 756.779C759.41 743.125 769.037 726.739 770.541 711.093C772.181 694.052 757.46 677.866 747.927 665.756Z" stroke="#727272"/>
<path fill-rule="evenodd" clip-rule="evenodd" d="M764.669 669.172C740.438 632.716 711.44 598.276 690.648 558.902C677.161 533.402 663.916 499.332 681.315 472.352C700.953 441.905 744.255 434.807 776.073 430.928C808.854 426.934 847.989 423.574 874.782 400.488C883.306 393.134 890.333 383.217 891.642 371.343C892.903 359.953 889.342 348.563 890.522 336.967C893.166 310.926 908.13 289.47 927.424 273.909C984.498 227.871 1069.44 217.635 1138.3 216.432C1172.77 215.834 1208.24 218.973 1242.93 221.223C1287.95 224.141 1333.03 230.406 1375.96 245.505C1467.24 277.596 1528.42 348.77 1571.15 437.334C1584.6 465.212 1594.89 495.374 1615.96 517.777C1626.83 529.345 1624.45 537.652 1613.35 548.202C1595.98 564.689 1574.8 577.29 1555.53 591.05C1528.11 610.62 1500.11 630.481 1475.87 653.923C1459.16 670.083 1447.29 685.652 1443.69 709.884C1441.12 727.161 1441.72 744.766 1440.18 762.15C1437.24 795.174 1427.17 827.949 1409.35 855.342C1395.18 877.054 1378.32 896.788 1360.9 915.603C1338.25 940.098 1319.09 964.986 1301.88 994.059C1279.08 1032.54 1247.03 1103.53 1193.31 1084.74C1134.06 1064.01 1078.52 1011.34 1040.51 960.308C1027.74 943.174 1017.26 922.159 1000.04 909.523C974.267 890.637 948.115 891.299 917.457 891.377C871.558 891.484 771.682 901.999 770.603 829.444C770.178 800.698 781.967 773.519 787.611 745.869C793.977 714.903 781.218 694.016 764.669 669.172Z" stroke="#727272"/>
<path fill-rule="evenodd" clip-rule="evenodd" d="M782.716 672.422C758.749 624.909 705.004 546.835 745.881 494.001C767.473 466.079 805.665 455.586 837.702 449.333C863.484 444.275 894.577 442.376 914.057 420.935C928.376 405.171 922.02 382.229 927.505 362.495C934.314 338.031 949.941 318.013 969.145 302.967C1022.81 260.917 1097.42 248.013 1161.98 245.267C1229.02 242.421 1302.89 255.731 1365.98 281.334C1444.65 313.268 1503.58 373.735 1544.79 450.308C1552.4 464.443 1559.31 478.948 1566.61 493.254C1571.51 502.85 1578.79 512.134 1582.65 522.228C1589.09 539.06 1581.51 552.818 1569.35 563.787C1551.86 579.58 1530.37 590.82 1510.43 602.671C1483.17 618.891 1455.29 634.819 1429.93 653.848C1412.88 666.653 1395.04 680.447 1388.94 702.663C1384.78 717.815 1383.92 733.864 1384.07 749.557C1384.39 783.205 1382.72 810.416 1367.83 841.233C1343.34 891.826 1305.67 937.319 1265.88 975.171C1234.65 1004.88 1185.24 1051.03 1139.74 1031.16C1098.92 1013.38 1075.04 970.811 1048.15 936.394C1035.07 919.662 1020.38 904.382 1003.12 892.48C981.358 877.477 960.872 871.182 935.09 868.727C891.696 864.594 826.265 863.52 812.851 808.602C807.898 788.334 810.725 767.342 808.127 746.811C804.733 719.665 794.808 696.389 782.716 672.422Z" stroke="#727272"/>
<path fill-rule="evenodd" clip-rule="evenodd" d="M807.638 674.181C790.571 622.193 768.15 556.673 809.371 510.468C829.338 488.084 857.423 475.571 884.604 466.22C904.072 459.519 934.983 457.546 946.918 436.943C955.684 421.781 956.898 400.864 964.828 384.62C975.725 362.286 992.232 343.891 1011.6 329.491C1062.05 291.966 1127.76 277.466 1187.69 273.314C1317.9 264.306 1450.39 336.057 1520.07 454.106C1540.84 489.295 1567.66 526.748 1534.09 562.698C1497.43 601.917 1442.21 620.291 1398.46 648.159C1381.74 658.799 1360.44 671.589 1351.12 690.853C1345.51 702.433 1345.12 716.962 1344.87 729.709C1344.19 762.177 1341.64 791.376 1329.26 821.672C1310.15 868.49 1279.68 911.683 1245.15 947.064C1215.03 977.915 1172.09 1014.17 1128.35 991.931C1094.82 974.839 1073.55 938.561 1047.49 911.819C1018.5 882.036 982.637 861.967 943.257 852.16C904.949 842.646 862.932 836.229 842.743 795.806C835.818 781.94 828.582 763.986 825.986 748.639C821.795 723.335 815.659 698.433 807.638 674.181Z" stroke="#727272"/>
<path fill-rule="evenodd" clip-rule="evenodd" d="M835.426 674.548C827.531 622.05 826.653 567.31 863.338 525.935C880.459 506.632 902.101 492.918 923.986 480.494C940.088 471.351 956.716 463.64 968.741 448.652C979.883 434.775 988.352 418.662 999.109 404.421C1013.3 385.55 1030.28 369.213 1049.39 356.039C1097.31 323.08 1155.59 307.665 1211.35 302.317C1238.35 299.719 1267.63 298.366 1294.44 305.45C1320.33 312.286 1345.94 323.094 1369.75 335.697C1420.36 362.462 1464.22 401.659 1496.02 451.215C1517.83 485.207 1529.62 518.259 1501.38 552.742C1469.55 591.612 1419.64 613.058 1378.5 638.285C1350.28 655.587 1318.66 672.547 1313.39 709.316C1309.19 738.573 1305.78 766.342 1294.93 793.996C1278.77 834.788 1255.01 871.739 1225.05 902.658C1197.66 930.825 1163.01 954.728 1123.83 939.683C1092.78 927.742 1068.7 900.992 1041.58 881.867C1011.35 860.506 978.142 848.729 943.172 839.26C911.744 830.715 882.152 817.586 861.84 789.71C857.683 784.014 853.316 777.812 850.111 771.44C846.021 763.308 846.339 755.248 845.536 746.134C843.444 722.082 838.996 698.308 835.426 674.548Z" stroke="#727272"/>
<path fill-rule="evenodd" clip-rule="evenodd" d="M866.066 670.257C866.74 620.392 878.106 573.266 909.236 534.406C922.544 517.782 938.436 504.089 953.08 488.856C964.871 476.575 976.014 465.164 989.572 455.044C1021.73 431.082 1047.87 400.073 1082.05 378.735C1127.67 350.209 1179.94 334.441 1231.79 328.136C1257.12 325.055 1283.27 323.979 1308.89 327.459C1330.9 330.447 1351.97 340.938 1371.52 351.671C1409.83 372.695 1447.03 402.577 1471.91 440.382C1526.75 523.729 1418.62 584.327 1363.12 619.815C1337.59 636.139 1298.59 655.045 1288.14 687.38C1280.66 710.479 1276.11 733.971 1266.49 756.358C1240.63 816.478 1188.15 887.188 1118.2 877.774C1088.28 873.752 1061 857.413 1033.06 846.445C1004.29 835.148 974.597 828.851 944.696 821.94C916.75 815.486 894.477 806.301 876.427 781.675C867.799 769.915 868.562 755.837 867.793 741.41C866.538 717.711 865.762 693.877 866.066 670.257Z" stroke="#727272"/>
<path fill-rule="evenodd" clip-rule="evenodd" d="M893.966 663.87C905.202 588.604 946.934 506.434 1008.3 462.724C1080.48 411.305 1158.67 368.007 1244.91 355.56C1284.9 349.789 1328.7 346.949 1366.42 365.823C1395.14 380.177 1428.49 401.634 1444.29 431.809C1482.95 505.616 1396.96 564.371 1347.97 598.517C1321.59 616.9 1288.02 634.812 1268.14 661.657C1256.6 677.221 1250.71 697.809 1241.4 714.904C1213.18 766.706 1166.73 808.488 1108.87 815.961C1082.11 819.412 1055.16 815.142 1028.61 811.748C1001.43 808.275 973.912 806.389 946.9 801.542C925.339 797.671 899.928 791.116 891.987 766.77C881.973 736.09 889.38 694.607 893.966 663.87Z" stroke="#727272"/>
<path fill-rule="evenodd" clip-rule="evenodd" d="M921.324 651.779C937.712 581.016 972.414 511.991 1030.75 469.747C1061.69 447.346 1097.6 431.883 1132.08 416.605C1171.16 399.29 1212 385.85 1253.7 379.183C1305.63 370.878 1389.73 363.392 1416.86 425.822C1443.79 487.788 1375.75 542.632 1335.51 573.886C1309.71 593.908 1282.1 612.284 1257.45 634.172C1244.08 646.038 1233.79 659.749 1222.48 673.667C1191.22 712.228 1146.65 742.756 1101.22 759.052C1057.2 774.85 1002.74 781.845 956.263 776.624C936.211 774.38 921.879 766.809 915.814 745.284C907.411 715.362 914.55 681.01 921.324 651.779Z" stroke="#727272"/>
<path fill-rule="evenodd" clip-rule="evenodd" d="M948.51 632.72C964.79 570.416 999.904 513.51 1051.12 476.116C1108.54 434.197 1182.47 410.904 1250.42 399.058C1286.54 392.767 1364.81 375.709 1383.22 424.529C1401.63 473.35 1348.41 521.461 1317.78 547.946C1280.6 580.041 1240.52 611.03 1200.48 639.827C1165.7 664.865 1128.58 690.463 1090.9 709.799C1069.65 720.767 1047.52 729.723 1024.76 736.56C1007.91 741.582 986.476 749.072 968.807 745.334C924.241 735.893 940.724 662.51 948.51 632.72Z" stroke="#727272"/>
<path fill-rule="evenodd" clip-rule="evenodd" d="M982.067 614.063C1017.79 496.239 1130.96 438.29 1239.92 418.092C1265.25 413.404 1336.23 396.499 1350.38 432.492C1364.1 467.389 1320.48 508.774 1300.06 528.382C1236.78 589.141 1158.6 634.19 1084.52 678.82C1061.39 692.75 1019.69 722.98 991.003 709.035C959.86 693.867 974.667 638.494 982.067 614.063Z" stroke="#727272"/>
<path fill-rule="evenodd" clip-rule="evenodd" d="M1018.66 591.385C1049.72 504.616 1140.07 454.851 1223.14 438.445C1243.49 434.431 1295.16 421.932 1310.57 446.146C1324.83 468.545 1290.8 501 1278.07 513.897C1249.72 542.616 1216.13 566.275 1182.94 589.015C1152.26 610.054 1121.24 631.62 1088.95 649.414C1071.95 658.78 1040.05 678.766 1020.72 664.303C999.918 648.744 1011.76 610.652 1018.66 591.385Z" stroke="#727272"/>
<path fill-rule="evenodd" clip-rule="evenodd" d="M1058.97 566.034C1082.65 509.371 1146.06 472.575 1202 460.348C1217.05 457.065 1249.58 448.548 1262.28 463.681C1273.97 477.617 1255.13 498.048 1246.77 507.483C1209.71 549.306 1155.45 586.664 1105.72 609.609C1093.22 615.377 1070.75 626.7 1057.89 615.057C1044.7 603.1 1053.54 579.045 1058.97 566.034Z" stroke="#727272"/>
<path fill-rule="evenodd" clip-rule="evenodd" d="M1101.75 542.232C1115.09 514.095 1149.96 492.867 1178.84 486.109C1199.17 481.357 1223.6 485.462 1205.89 509.954C1188.29 534.26 1155.63 556.459 1127.96 566.3C1106.84 573.805 1090.29 566.401 1101.75 542.232Z" stroke="#727272"/>
<path fill-rule="evenodd" clip-rule="evenodd" d="M19.854 737.112C18.9983 681.523 -8.99646 623.751 4.8291 567.11C16.182 520.591 73.337 516.707 107.625 495.631C134.872 478.887 150.334 449.225 165.069 420.766C178.309 395.216 190.201 368.898 204.148 343.767C213.176 327.521 228.679 295.619 248.259 295.043C267.003 294.488 284.19 319.348 295.078 334.044C309.274 353.199 321.86 373.621 335.645 393.082C358.877 425.909 386.75 450.207 418.666 473.204C454.986 499.37 491.906 524.643 529.425 549.022C557.05 567.025 584.862 584.893 611.415 604.674C628.071 617.086 664.831 640.374 665 663.257C665.08 674.176 655.277 686.268 648.668 694.996C637.483 709.769 624.736 723.277 611.948 736.493C588.13 761.111 563.302 784.613 538.744 808.399C506.868 839.27 476.421 869.635 448.399 904.681C419.427 940.958 391.749 978.429 363.505 1015.39C344.377 1040.43 325.269 1068.54 297.679 1083.91C263.122 1103.11 234.757 1082.86 199.809 1082.63C169.745 1082.42 171.962 1008.9 168.142 988.459C164.308 967.767 155.859 948.505 152.585 927.763C148.502 901.872 148.448 875.383 147.444 849.214C146.224 817.205 145.739 786.733 113.325 774.527C94.8772 767.591 74.9204 766.133 55.826 761.979C43.4558 759.283 20.1235 754.674 19.854 737.112Z" stroke="#727272"/>
<path fill-rule="evenodd" clip-rule="evenodd" d="M34.6335 727.223C31.4823 680.626 12.8651 620.986 30.4702 572.886C45.511 531.781 92.55 526.453 124.224 504.861C150.372 487.051 162.012 457.907 175.082 429.277C185.569 406.31 195.738 383.122 207.641 360.888C216.413 344.503 229.807 316.842 248.047 313.451C264.444 310.402 282.029 334.822 291.233 347.246C304.661 365.383 316.145 385.081 328.008 404.365C348.852 438.239 370.195 468.7 400.702 493.584C431.344 518.574 464.867 537.26 498.748 556.708C525.253 571.924 551.624 587.582 576.807 605.15C595.566 618.229 622.537 634.97 631.12 658.293C637.915 676.744 603.454 707.362 593.292 718.169C572.373 740.388 550.207 761.247 528 781.977C500.928 807.238 472.992 829.329 449.084 858.145C406.323 909.664 370.58 973.821 315.558 1012.11C282.373 1035.21 245.442 1041.11 208.531 1037.66C193.916 1036.29 190.407 1014.51 188.565 1001.81C185.501 980.71 185.116 959.246 182.762 938.06C180.555 918.227 175.656 899.384 171.709 879.936C167.714 860.232 166.594 840.043 163.652 820.203C161.83 807.886 160.028 793.553 152.059 783.651C143.813 773.4 130.21 769.104 118.32 765.841C95.9914 759.772 36.8603 760.107 34.6335 727.223Z" stroke="#727272"/>
<path fill-rule="evenodd" clip-rule="evenodd" d="M53.6556 707.717C48.356 664.945 40.9364 611.671 62.5267 572.264C80.1743 540.042 117.812 533.091 144.695 512.096C167.055 494.637 175.501 466.87 186.6 441.065C195.707 419.9 204.862 398.641 215.9 378.5C224.271 363.225 235.06 342.515 251.681 337.186C265.892 332.633 281.947 353.03 289.825 363.183C303.24 380.485 314.177 399.872 325.039 419.003C342.809 450.307 359.16 483.745 384.45 509.208C409.024 533.917 438.216 548.501 467.955 564.9C490.734 577.465 513.37 590.513 534.832 605.496C551.312 616.993 571.734 630.617 580.322 649.748C587.748 666.247 568.683 685.776 559.157 697.415C543.427 716.624 525.968 734.247 508.753 751.941C490.173 771.029 469.596 788.637 451.617 808.195C413.811 849.353 383.606 894.921 337.009 926.453C306.832 946.878 266.223 965.433 230.55 962.096C204.896 959.692 206.583 899.773 204.119 880.628C200.068 849.324 192.244 816.434 179.815 787.599C169.141 762.89 143.777 755.27 120.445 749.728C105.829 746.249 90.5103 744.371 76.3734 738.992C60.0085 732.76 55.8768 725.646 53.6556 707.717Z" stroke="#727272"/>
<path fill-rule="evenodd" clip-rule="evenodd" d="M71.3991 687.668C68.2436 651.506 68.9531 608.744 89.3928 577.463C107.305 550.063 139.198 542.849 161.881 521.265C179.584 504.425 186.537 476.968 196.057 454.699C207.693 427.471 223.997 377.181 253.349 366.934C280.654 357.409 309.208 418.259 319.094 436.404C334.743 465.124 347.831 496.619 366.811 523.141C383.156 545.974 405.055 558.597 428.299 572.161C457.935 589.486 502.929 610.028 518.774 643.793C530.585 668.952 492.179 706.356 479.063 723.787C465.347 741.997 455.016 763.581 440.86 781.148C418.522 808.869 382.325 831.189 352.439 848.221C323.384 864.789 285.654 883.127 252.694 882.035C231.031 881.321 226.909 846.016 222.288 828.77C215.666 804.253 206.862 782.283 187.949 765.608C168.699 748.633 146.009 740.634 122.157 733.634C109.913 730.066 95.947 727.284 84.994 720.077C72.8924 712.235 72.6154 701.568 71.3991 687.668Z" stroke="#727272"/>
<path fill-rule="evenodd" clip-rule="evenodd" d="M93.0181 666.825C93.1932 635.583 99.9619 602.269 120.032 578.17C136.748 558.098 162.914 551.388 178.916 530.868C191.592 514.623 198.044 491.817 206.53 472.951C216.908 449.833 231.584 409.446 257.392 401.423C282.581 393.613 304.861 438.096 314.519 455.698C328.662 481.507 340.112 508.865 354.383 534.603C365.563 554.796 379.235 567.811 397.44 580.826C418.81 596.113 448.626 613.047 460.042 638.338C468.272 656.65 448.35 685.91 441.117 702.042C436.267 712.877 431.829 723.882 429.391 735.626C427.492 744.771 427.303 753.235 421.801 761.088C407.947 780.841 377.572 783.418 356.963 789.929C329.592 798.57 300.55 808.39 271.906 810.264C254.301 811.436 245.317 794.317 235.268 782.275C223.394 768.039 206.584 757.8 191.901 747.058C172.525 732.857 151.437 724.024 129.623 714.979C119.783 710.896 108.226 706.891 100.602 698.776C92.641 690.362 92.9575 678.1 93.0181 666.825Z" stroke="#727272"/>
<path fill-rule="evenodd" clip-rule="evenodd" d="M115.724 648.278C119.203 622.04 130.044 596.962 148.355 578.413C162.392 564.173 181.033 556.155 192.299 539.045C202.796 523.095 210.111 504.96 218.781 487.907C227.956 469.878 241.588 439.745 262.751 434.839C285.559 429.556 303.128 459.952 312.857 476.799C325.147 498.089 334.485 520.995 345.474 543.018C353.753 559.433 364.313 574.446 376.803 587.556C389.903 601.376 407.668 614.613 414.295 633.617C420.153 650.45 409.191 670.814 407.256 687.881C405.187 706.116 408.814 725.27 397.339 740.928C373.675 773.218 314.286 767.23 280.334 767.921C246.834 768.633 219.9 748.874 192.791 730.076C174.884 717.666 156.236 707.156 137.878 695.593C119.163 683.794 112.664 671.369 115.724 648.278Z" stroke="#727272"/>
<path fill-rule="evenodd" clip-rule="evenodd" d="M136.821 633.26C147.108 595.248 179.239 575.045 202.209 546.319C221.004 522.802 235.096 474.1 266.748 467.658C302.683 460.347 324.196 524.876 336.69 549.775C350.553 577.39 375.243 599.852 385.51 629.084C390.907 644.427 386.272 658.744 383.399 674.08C380.248 690.919 377.881 708.137 367.006 721.691C345.601 748.365 303.797 748.18 273.689 748.914C242.523 749.676 214.952 731.397 190.121 713.154C163.784 693.834 126.284 672.241 136.821 633.26Z" stroke="#727272"/>
<path fill-rule="evenodd" clip-rule="evenodd" d="M154.051 622.953C165.644 595.87 190.003 573.853 209.77 553.069C226.268 535.741 244.016 500.859 269.171 498.373C298.736 495.44 316.654 532.688 328.287 555.527C339.737 577.969 356.235 601.665 362.575 626.296C369.186 651.955 351.58 686.511 334.79 704.667C316.063 724.913 285.425 732.394 259.135 731.587C231.609 730.765 206.352 714.032 185.505 696.676C163.218 678.123 140.57 654.392 154.051 622.953Z" stroke="#727272"/>
<path fill-rule="evenodd" clip-rule="evenodd" d="M170.04 617.854C181.113 595.329 200.307 576.274 218.004 559.277C231.662 546.155 251.815 523.843 271.519 523.296C293.196 522.693 311.567 541.421 320.184 560.618C328.679 579.553 337.63 603.291 338.902 624.064C341.664 669.299 285.442 719.97 243.225 715.847C203.197 711.936 147.962 662.734 170.04 617.854Z" stroke="#727272"/>
<path fill-rule="evenodd" clip-rule="evenodd" d="M184.826 615.37C200.102 586.022 237.207 544.181 271.558 543.188C310.988 542.052 320.887 588.612 315.747 622.354C310.526 656.792 265.066 706.638 228.818 699.903C193.439 693.33 166.722 650.177 184.826 615.37Z" stroke="#727272"/>
<path fill-rule="evenodd" clip-rule="evenodd" d="M200.438 610.625C213.371 586.052 240.97 555.358 269.756 554.429C304.054 553.33 303.407 592.64 295.629 617.107C287.542 642.51 251.922 685.897 221.89 679.046C192.687 672.359 188.044 634.177 200.438 610.625Z" stroke="#727272"/>
<path fill-rule="evenodd" clip-rule="evenodd" d="M214.036 607.797C222.573 590.263 243.939 568.102 264.25 567.393C289.077 566.54 284.251 597.719 277.837 612.768C270.212 630.674 244.655 661.788 223.208 656.746C202.092 651.782 206.992 622.244 214.036 607.797Z" stroke="#727272"/>
<path fill-rule="evenodd" clip-rule="evenodd" d="M1381.93 1609.63C1326.98 1644.81 1264.86 1673.85 1206.28 1703.36C1120.67 1746.49 1033.8 1788.46 943.848 1820.58C895.621 1837.8 833.128 1862.63 781.381 1849.14C762.461 1844.21 745.207 1829.29 728.243 1819.6C704.852 1806.24 681.116 1793.54 657.421 1780.81C609.888 1755.29 562.208 1730.03 515.492 1702.88C492.997 1689.8 471.17 1673.33 447.751 1662.17C434.066 1655.64 417.689 1658.7 403.065 1659.11C369.192 1660.07 335.339 1661.89 301.485 1663.44C260.078 1665.34 218.575 1667.35 177.12 1666.6C158.423 1666.26 112.631 1669.76 102.338 1652.77C96.8007 1643.62 109.852 1627.12 115.903 1619.48C127.012 1605.45 139.78 1592.81 152.38 1580.29C181.518 1551.35 212.464 1523.78 238.365 1491.45C251.673 1474.83 269.109 1454.52 260.422 1431.83C251.653 1408.91 236.463 1389.06 227.196 1366.22C216.525 1339.94 212.1 1312.58 207.062 1284.71C203.332 1264.11 194.644 1245.86 186.476 1226.87C177.451 1205.88 168.102 1184.71 161.836 1162.58C157.695 1147.95 151.01 1121.65 165.499 1112.39C186.085 1099.23 224.686 1109.88 248.152 1113.76C280.582 1119.11 312.776 1125.93 345.119 1131.8C368.598 1136.07 392.159 1140.75 416.029 1141.25C454.51 1142.05 493.118 1139.27 531.498 1136.68C602.563 1131.89 673.119 1125.38 744.425 1125.38C806.896 1125.38 951.261 1201.64 985.054 1215.07C1052.5 1241.87 1121.75 1267.28 1185.58 1302.94C1202.84 1312.6 1229.42 1325.46 1238.5 1345.34C1244.11 1357.58 1241.53 1364.66 1254.75 1372.55C1272.79 1383.32 1295.9 1387.55 1315.86 1392.36C1348.02 1400.12 1380.42 1406.69 1412.72 1413.71C1478.05 1427.88 1542.94 1443.9 1608 1459.32C1627.67 1463.98 1651.47 1465.01 1670.22 1473.22C1682.31 1478.5 1681.05 1485.14 1671.7 1493.15C1655.29 1507.21 1632.29 1515.01 1612.9 1523.03C1584.5 1534.78 1555.63 1545.26 1526.75 1555.59C1497.86 1565.93 1468.83 1575.94 1439.94 1586.29C1420.85 1593.11 1399.08 1598.65 1381.93 1609.63Z" stroke="#727272"/>
<path fill-rule="evenodd" clip-rule="evenodd" d="M1336.71 1601.89C1278.58 1637.14 1214.06 1665.22 1151.86 1692.62C1072.25 1727.71 990.839 1760.59 906.96 1782.53C857.711 1795.4 799.603 1809.6 749.281 1794.85C731.329 1789.58 717.917 1777.75 702.528 1767.3C684.987 1755.38 666.772 1744.45 648.556 1733.7C611.059 1711.57 573.167 1690.19 534.878 1669.57C514.598 1658.6 492.274 1643.92 469.363 1640.11C451.148 1637.08 430.456 1641.47 412.16 1642.74C379.21 1645.04 346.267 1647.4 313.304 1649.41C275.267 1651.73 237.122 1653.87 199.005 1653.49C177.76 1653.29 141.289 1656.7 126.264 1642.22C113.156 1629.57 160.88 1583.86 169.273 1575.17C195.483 1548.05 223.049 1522.23 247.444 1493.22C261.862 1476.12 279.416 1455.32 285.495 1432.66C290.669 1413.34 280.684 1391.33 274.788 1373.47C267.414 1351.1 261.464 1327.91 252.896 1306.02C245.265 1286.51 233.122 1269.13 222.455 1251.39C210.723 1231.88 198.843 1212.05 190.133 1190.77C184.797 1177.67 175.965 1155.74 186.571 1143.25C198.823 1128.86 236.589 1138.26 252.113 1140.32C283.606 1144.54 314.855 1150.81 346.132 1156.42C398.08 1165.74 447.606 1173.89 500.505 1171.94C569.393 1169.39 638.214 1163.39 707.089 1160.07C732.523 1158.83 758.362 1156.34 783.817 1157.68C798.409 1158.46 809.521 1163.16 818.008 1173.77C829.598 1188.25 856.294 1196.27 874.86 1204.58C903.809 1217.52 933.123 1229.57 962.355 1241.77C1026.53 1268.56 1091.93 1294.38 1152.79 1329.03C1172.05 1339.99 1194.1 1352.21 1208.34 1370.32C1216.29 1380.42 1214.28 1390.14 1219.13 1400.87C1225.56 1414.99 1246.67 1421.36 1259.29 1425.98C1283.66 1434.9 1309.02 1440.88 1334.18 1446.48C1391.12 1459.15 1448.2 1467.48 1506.06 1473.61C1519.62 1475.04 1573.02 1479.98 1544.97 1503.78C1513.99 1530.08 1469.25 1542.97 1432.77 1557.79C1399.91 1571.11 1367.02 1583.51 1336.71 1601.89Z" stroke="#727272"/>
<path fill-rule="evenodd" clip-rule="evenodd" d="M1256.38 1595.37C1201.74 1626.38 1141.21 1649.52 1082.37 1671.65C1010.96 1698.51 937.765 1722.45 862.872 1735.86C815.826 1744.28 763.957 1750.75 717.228 1736.76C685.317 1727.21 660.632 1701.4 632.604 1683.64C604.576 1665.88 575.413 1649.21 545.379 1635.32C526.739 1626.7 506.687 1618.01 485.946 1619.15C435.516 1621.91 385.147 1628.49 334.662 1631.68C301.265 1633.82 267.8 1635.58 234.302 1635.05C214.101 1634.74 186.35 1636.02 168.466 1624.8C148.698 1612.4 253.955 1506.53 263.903 1494.61C288.845 1464.73 319.048 1425.07 314.226 1382.58C309.613 1341.95 289.622 1311.62 267.01 1279.79C254.178 1261.69 213.028 1213.32 228.277 1189.77C236.99 1176.31 265.707 1180.97 279.349 1181.88C306.236 1183.69 332.974 1187.57 359.719 1190.95C398.715 1195.83 438.785 1203.38 477.95 1205.6C505.221 1207.13 532.655 1205.08 559.974 1205.03C599.146 1204.98 638.317 1205.29 677.489 1205.66C710.38 1205.97 743.547 1205.66 776.323 1208.99C796.699 1211.04 812.165 1215.64 826.781 1228.65C839.498 1239.96 858.685 1246.58 874.894 1253.78C901.666 1265.65 928.789 1276.66 955.824 1287.84C1012.43 1311.26 1069.68 1334.19 1123.86 1363.46C1148.59 1376.81 1190.17 1395.51 1195.97 1427.89C1198.07 1439.56 1199.61 1444.61 1210.41 1451.25C1225.75 1460.67 1244.12 1464.91 1261.33 1468.61C1301.45 1477.21 1342.73 1475.93 1382.78 1484.44C1399.09 1487.94 1420.38 1495.51 1401.76 1512.84C1380.03 1533.11 1348.41 1544.25 1322.38 1556.78C1309.38 1563.02 1296 1568.87 1283.66 1576.5C1274.18 1582.37 1266.07 1589.91 1256.38 1595.37Z" stroke="#727272"/>
<path fill-rule="evenodd" clip-rule="evenodd" d="M1152.89 1585.69C1102.42 1610.88 1047.59 1629.19 993.757 1645.7C933.96 1664.01 872.719 1679.18 810.669 1685.64C767.824 1690.11 722.173 1691.43 680.589 1677.74C654.291 1669.09 636.462 1650.88 613.832 1635.61C579.679 1612.53 542.727 1594.25 501.695 1598.7C455.694 1603.67 409.542 1607.41 363.239 1609.9C335.31 1611.41 307.272 1612.53 279.308 1611.48C261.628 1610.83 238.85 1609.72 223.469 1601.27C202.889 1589.95 280.192 1503.83 289.828 1491.28C313.725 1460.15 331.244 1427.49 341.479 1388.92C349.827 1357.45 332.774 1332.71 315.182 1309.17C304.244 1294.55 268.904 1257.78 279.969 1238.8C286.038 1228.33 306.038 1228.87 316.78 1228.34C337.252 1227.32 357.811 1228.38 378.283 1228.84C408.512 1229.56 440.69 1224.66 470.663 1228.6C537.089 1237.33 603.347 1244.89 670.184 1250.87C707.028 1254.17 744.095 1257.16 780.609 1263.52C793.717 1265.8 807.257 1268.22 819.678 1273.38C827.669 1276.7 832.025 1282.34 838.768 1286.98C870.919 1309.04 912.888 1320.4 949.098 1334.54C997.237 1353.34 1045.63 1371.84 1092.49 1394.05C1117.14 1405.73 1151.56 1419.15 1168.52 1442.99C1173.64 1450.2 1171.46 1455.96 1174.68 1462.88C1178.39 1470.87 1189.66 1473.25 1196.93 1475.48C1213.45 1480.54 1282.57 1488.18 1250.72 1517.84C1235.52 1531.97 1216.15 1541.03 1199.02 1552.14C1192.81 1556.16 1186.76 1560.2 1181.59 1565.63C1172.94 1574.73 1164.42 1579.92 1152.89 1585.69Z" stroke="#727272"/>
<path fill-rule="evenodd" clip-rule="evenodd" d="M1042.63 1574.78C942.979 1615.54 826.192 1643.3 717.547 1637.92C681.417 1636.12 642.544 1630.13 611.226 1609.63C592.759 1597.52 578.002 1583.85 555.819 1579.47C539.805 1576.32 522.561 1579.9 506.453 1581.2C483.121 1583.08 459.776 1584.76 436.41 1586.12C407.443 1587.78 378.381 1589.06 349.36 1588.38C328.623 1587.89 299.987 1588.44 281.973 1576.69C260.466 1562.66 315.211 1496.89 322.914 1485.17C341.583 1456.77 354.671 1429.25 359.401 1395.01C360.793 1385.04 365.483 1374.82 364.874 1364.76C364.239 1354.5 358.246 1345.36 352.712 1337.28C345.475 1326.7 320.366 1301.61 327.556 1288.71C331.529 1281.59 346.441 1280.69 354.171 1279.18C368.672 1276.33 383.382 1274.8 397.97 1272.53C422.721 1268.67 447.296 1256.09 472.134 1256.45C538.927 1257.39 606.685 1279.25 672.14 1291.25C711.053 1298.41 750.23 1304.91 788.67 1314.61C800.833 1317.68 813.36 1320.86 824.921 1326.06C832.989 1329.7 838.172 1336.17 845.645 1340.24C874.301 1355.86 907.255 1365.35 938.026 1375.86C977.973 1389.54 1018.06 1402.81 1057.73 1417.37C1082.59 1426.5 1114.56 1434.53 1135.99 1451.45C1151.64 1463.81 1140.94 1467.51 1132.69 1479.02C1128.47 1484.89 1129.44 1490.68 1127.61 1497.33C1125 1506.82 1117.61 1513.65 1110.67 1519.79C1101.11 1528.28 1088.37 1535.26 1080.56 1545.67C1077.8 1549.33 1077.93 1553.87 1075.7 1557.07C1069.21 1566.36 1052 1570.95 1042.63 1574.78Z" stroke="#727272"/>
<path fill-rule="evenodd" clip-rule="evenodd" d="M936.68 1560.27C855.802 1585.89 765.811 1600.47 680.319 1593.7C650.574 1591.35 620.647 1585.86 592.939 1573.83C580.332 1568.37 570.869 1562.28 557.056 1561.95C525.004 1561.2 492.851 1563.84 460.806 1564.48C437.873 1564.93 414.826 1565.1 391.947 1563.15C376.649 1561.85 355.963 1560.3 343.431 1550.4C325.219 1535.98 358.094 1486.97 364.785 1473.43C375.874 1450.98 386.875 1426.01 382.477 1400.03C381.128 1392.08 378.74 1385.06 378.43 1376.96C378.133 1369.99 378.963 1363.56 376.622 1356.91C373.729 1348.66 360.86 1335.85 365.284 1328.25C368.299 1323.06 377.243 1322.82 383.192 1321.16C392.841 1318.47 402.262 1314.93 411.359 1310.6C420.936 1306.01 429.091 1298.92 439.013 1295.13C455.12 1288.98 473.149 1288.41 490.079 1288.43C557.629 1288.55 626.036 1302.61 691.873 1317.31C726.158 1324.97 760.631 1333.13 793.951 1344.74C804.068 1348.26 815.535 1351.81 824.431 1358.32C829.982 1362.37 833.746 1367.46 840.052 1370.51C893.924 1396.55 956.207 1406.22 1013.4 1425.03C1028.28 1429.92 1110.78 1454.66 1067.65 1477.93C1041.44 1492.07 1013.75 1498.5 989.844 1517.84C982.559 1523.72 977.703 1528.59 974.856 1537.56C972.981 1543.53 977.494 1540.5 971.194 1546.75C963.552 1554.25 946.103 1557.28 936.68 1560.27Z" stroke="#727272"/>
<path fill-rule="evenodd" clip-rule="evenodd" d="M852.585 1545.12C757.895 1566.03 657.618 1567.02 561.433 1548.48C537.186 1543.81 511.951 1544.93 487.406 1543.74C463.557 1542.61 421.156 1544.97 403.835 1525.62C391.275 1511.6 404.903 1481.79 409.618 1466.1C415.624 1446.11 420.872 1425.46 411.011 1406.05C405.235 1394.68 397.321 1383.85 391.126 1372.59C388.163 1367.21 382.063 1358.97 384.606 1353.87C388.813 1345.47 408.495 1341.93 418.045 1337.96C448.569 1325.29 480.892 1322.06 513.527 1322.15C573.804 1322.32 634.392 1331.01 693.519 1342.81C720.722 1348.24 748.304 1354.03 774.54 1363.47C789.386 1368.8 800.336 1379.1 814.513 1385.2C860.16 1404.87 909.203 1415.38 955.635 1433.37C969.074 1438.58 1019.27 1455.91 993.985 1476.36C969.501 1496.15 933.789 1493.8 908.331 1512.41C905.449 1514.55 901.885 1517.1 900.214 1520.54C899.227 1522.6 900.965 1526.53 900.214 1527.7C892.396 1540.44 864.604 1542.46 852.585 1545.12Z" stroke="#727272"/>
<path fill-rule="evenodd" clip-rule="evenodd" d="M791.237 1531.29C742.658 1538.32 693.011 1540.07 643.614 1540.51C616.614 1540.75 586.948 1542.57 560.529 1535.35C544.3 1530.91 528.626 1527.02 511.896 1524.22C493.896 1521.21 464.914 1519.01 453.952 1502.67C445.763 1490.46 451.376 1465.36 451.673 1450.52C451.991 1434.23 448.827 1422.16 437.933 1410.51C431.083 1403.17 399.66 1376.54 403.291 1368.85C406.746 1361.54 428.642 1360.42 438.109 1358.52C468.031 1352.49 498.352 1350.39 528.788 1350.71C575.926 1351.22 623.24 1356.29 669.642 1365C688.826 1368.63 708.652 1372.38 726.977 1379.61C739.318 1384.49 749.61 1393.15 761.869 1398.19C796.978 1412.66 834.101 1422.48 869.332 1437.21C880.638 1441.95 917.478 1454.56 908.646 1473.99C901.282 1490.22 876.236 1495.16 863.929 1506.03C842.994 1524.58 817.933 1527.44 791.237 1531.29Z" stroke="#727272"/>
<path fill-rule="evenodd" clip-rule="evenodd" d="M760.634 1521.97C722.098 1526.62 682.667 1528.66 643.565 1528.76C618.331 1528.82 591.708 1529.19 566.945 1523.2C554.506 1520.2 543.697 1513.17 531.925 1508.16C519.803 1503.01 503.074 1497.26 497.834 1485.45C492.911 1474.34 494.75 1458.15 490.426 1444.76C486.581 1432.88 478.533 1425.55 469.865 1417.52C464.343 1412.39 435.983 1390.18 439.263 1385.27C442.779 1380.02 459.811 1380.45 468.673 1379.72C493.092 1377.69 517.596 1377.04 542.081 1377.78C575.498 1378.86 609.171 1381.88 642.01 1388.71C665.305 1393.55 682.875 1405.08 704.595 1413.53C732.732 1424.51 761.879 1433.2 789.747 1445.21C803.634 1451.19 824.188 1458.89 831.3 1474.34C834.034 1480.27 836.688 1495.32 833.644 1501.25C829.987 1508.36 816.376 1511.38 809.951 1513.21C793.856 1517.77 777.012 1519.99 760.634 1521.97Z" stroke="#727272"/>
</g>
</svg>
