<svg xmlns="http://www.w3.org/2000/svg" viewBox="0 0 596.3 574.9" style="enable-background:new 0 0 596.3 574.9" xml:space="preserve"><style>.st1,.st4{fill:#f5bd61;stroke:#000;stroke-width:.5;stroke-linecap:round;stroke-linejoin:round;stroke-miterlimit:10}.st4{fill:#ee7561}.st5{fill:#fff}.st10,.st11,.st5,.st6,.st7,.st8,.st9{stroke:#000;stroke-width:.5;stroke-linecap:round;stroke-linejoin:round;stroke-miterlimit:10}.st10,.st11,.st7,.st8,.st9{fill:#e4ddce}.st10,.st11,.st8,.st9{fill:#4f7e60}.st10,.st11,.st9{fill:#6ac38b}.st10,.st11{fill:#efefed}.st11{fill:#c8bfad}.st12{fill:#2e91fb}.st13{fill:#fff}.st14{fill:#efebe4}.st15{fill:none;stroke:#000;stroke-width:.5;stroke-linecap:round;stroke-linejoin:round;stroke-miterlimit:10}.st16{fill:#a9d6ff}.st17{fill:#72bfed}.st18{fill:#8ac9f9}.st22{fill:#4f4d49;stroke:#000;stroke-width:.5;stroke-linecap:round;stroke-linejoin:round;stroke-miterlimit:10}</style><path d="M589.2 418.5C554.8 541 320.8 553.8 184 540.9 39.2 527.2 29 390.1 63.4 267.6s184-191.3 324.7-151.7 235.6 180 201.1 302.6z" style="fill:#dcf0ff" id="Layer_23_copy"/><g id="Layer_19_copy"><path class="st1" d="m31.6 199.5-2.9.2 9.4 66.8 152.6-48.1-11.2-67.4z"/><path style="fill:#fff;stroke:#231f20;stroke-width:.5;stroke-linecap:round;stroke-linejoin:round;stroke-miterlimit:10" d="m28.9 155.8 1.5 43.8 9.5 66.9 152.6-48.1-11.3-67.5z"/><path class="st1" d="m27.2 155.9 11.2 67.4L50.6 256l143.6-38.7-14.7-66.3z"/><path class="st1" d="m38.4 223.3-.3 43.2 155.8-6 .3-43.2z"/><path d="m146.9 123 66.3 31.7-117.4 56.8L19.6 175 127 123.1c6.1-3 13.7-3 19.9-.1z" style="fill:#f2a900;stroke:#000;stroke-width:.5;stroke-linecap:round;stroke-linejoin:round;stroke-miterlimit:10"/><path class="st4" d="m136.9 135.5 76.3 36.5-117.4 56.7-72.6-34.8-3.9-5.2.8-11.9z"/><path class="st5" d="M25.3 176.9c-1.6-.8-2.9-.1-2.9 1.4v9.2c0 1.5 1.3 3.4 2.9 4.2l72.2 34.6v-14.7l-72.2-34.7zM97.5 226.2v-17.1l113.2-54.7v17.2z"/><path class="st4" d="M97.5 213.1v-2.5l115.7-55.8v2.5zM97.5 230.3v-2.5L213.2 172v2.5z"/><path class="st4" d="m141.7 120.5 71.4 34.2-117.3 56.8L19.6 175l112.6-54.4c2.9-1.5 6.6-1.5 9.5-.1z"/><path class="st4" d="m23.6 177.7 73.9 35.4v-2.5l-73.9-35.4c-3-1.5-5.5-.3-5.5 2.6v9.2c0 2.9 2.5 6.5 5.5 7.9l73.9 35.4v-2.5l-73.9-35.4c-1.6-.8-2.9-2.6-2.9-4.2V179c0-1.5 1.3-2.1 2.9-1.3z"/><g><path class="st6" d="m270.1 545.2 69.2-20.1-31.9-15.6"/><path class="st5" d="m301 530.3-163.6 40L0 452l165.4-41.5z"/><path class="st5" d="M177.5 574.9s119.2-38 128-40.8c8.7-2.8 30.5-23.5 30.5-23.5s-14.4.6-22-4.1c-7.6-4.7-141-87-141-87l-163 52 147.7 91.1 19.8 12.3z"/></g><g><path class="st6" d="M399.7 289c0 12.6 8.3 32.8 40.8 32.8s77-16.3 77-32.8c0-12.6-26.4-22.8-58.9-22.8s-58.9 10.2-58.9 22.8z"/><path class="st6" d="M569.5 272.4s0 0 0 0 0 0 0 0c-1.5-.9-3.4-1.4-5.1-2-.6-.2-1.2-.4-1.6-.6-2.7-1.1-5.6-2-8.6-2.7-.4-.1-.9-.2-1.4-.3-1.5-.3-3.1-.6-4.6-.8-6-.9-12.2-1.6-18.3-2-4.2-.3-8.4 0-12.3.5.5-.6.8-1.2.7-2 0-.1 0-.2-.1-.3h.1c1.1-.2 4.5-.5 6.2-.5h.3c1.2 0 2.3.1 3.4.1h8.2c6.1.2 12.6.7 18.6 1.7 1.7.3 3.4.6 5.2.8 1.7.1 3.6 0 4.8-.6-1.6-.7-3.6-1.1-5.6-1.3-.7-.1-1.3-.1-1.9-.3-.4-.1-.8-.3-1.1-.6-.2-.5-1.3-1.2-1.9-1.6-.1-.1-.2-.2-.4-.3-.2-.2-.5-.3-.7-.5-.2-.1-.4-.2-.5-.4-.2-.2-.5-.3-.7-.5-.1 0-.1-.1-.2-.1-.1-.1-.2-.1-.4-.2s-.5-.3-.7-.4c-.2-.1-.4-.2-.6-.4-.3-.1-.5-.3-.8-.4-.2-.1-.4-.2-.7-.3-.3-.1-.5-.3-.8-.4-.2-.1-.5-.2-.7-.3-.3-.1-.6-.2-.8-.4-.1-.1-.3-.1-.4-.2-.1 0-.2-.1-.3-.1l-.9-.3c-.2-.1-.5-.2-.7-.3l-.9-.3c-.3-.1-.5-.2-.8-.3-.3-.1-.6-.2-1-.3-.2 0-.3-.1-.5-.2 1.5-.2 3-.5 4.5-.7 2.3-.4 4.5-.8 6.2-1.7 3-1.6 5.5-3.4 7.5-5.4 2.1-2.1 3.8-4.4 4.6-6.8.4-1.4.3-2.8-.9-4.2-.6-.7-1.7-1.2-2.2-1.8-.5-.6-.5-1.2-.1-1.8.1-.1.2-.1.4-.2-.1 0-.2 0-.3.1l.1-.1c-.6.2-1.3.4-2.1.4-.4 0-.9 0-1.3-.1s-.9-.2-1.3-.2c-8.2-1.6-15.8-.3-21.9 2.2-4.4 1.8-9.1 3.8-11.4 6.5-.8.9-1.1 1.9-1.4 2.9-.3 1.1-.7 2.3-.8 3.5-.1 1 0 2 0 3v1.3c0 .2 0 .5-.1.7 0 .1 0 .3-.1.4 0 .1 0 .2-.1.3-1.9.7-3 1.9-3.3 3.2-.1.7-.1 1.4 0 2.1l-1.9.8-.9-.6c-.9-.5-1.9-1-3-1.4 1.9-1.3 4.8-3.4 5-3.5l-.6-.2c-.1.1-3 2.1-4.9 3.4-.5-.2-1.1-.5-1.6-.7l-.6-.3c-.5-.2-.9-.5-1.2-.8.1-.2.2-.3.3-.5 1.2-2 1.8-4.1 1.8-6.2-.1-4.4-3-8.8-7.8-12.8-2.2-1.8-4.8-3.5-7.7-5-1.9-1-3.9-2-6.2-2.8-2.3-.8-4.8-1.4-7.4-1.5-1.5-.1-3 0-4.3-.4-.6-.2-1.1-.5-1.7-.6-.3-.1-.6-.2-.8-.2 0 0 0 0 0 0s0 0 0 0c.1 0 .1.1.2.1.3.2.5.4.8.5 0 0 0 0 0 0s0 0 0 0c.3.2.5.5.5.8 0 .5-.3 1-.4 1.5-.1 1.5 1.2 3.3 2.2 4.7 1.8 2.5 4.1 5 6.9 7.4 1.8 1.5 4 2.9 6 4.3.1.6 0 1.2 0 1.7-.2 3.5.6 7.1 1.4 10.7.3 1.4.7 2.8 1 4.2 0 0-.1 0-.1.1-1.1 1-1.4 2-1.6 3.2-.2 1-.2 2-.3 3.1-1.5.4-2.8.9-3.9 1.5s-1.8 2.1-2.2 3.6c-1.5.6-3 1.3-4.5 1.9-4.3 1.9-11.7 5-15.9 7-.4.2-1.1.5-1.6.7-.4.2.5.9 1.4.5.8-.3.8-.4 1.3-.6 4.1-1.9 11.6-5.1 15.8-7 1.1-.5 2.1-1 3.2-1.4-.1.5-.2 1-.3 1.4-.9.4-1.8.8-2.6 1.2-4.3 1.9-11.7 5-15.9 7-.4.2-1.1.5-1.6.7-.4.2.5.9 1.4.5.8-.3.8-.4 1.3-.6 2.5-1.2 6.1-2.8 9.6-4.3-3.6 2-7.1 3.9-8.8 4.7l-1.2.6c-.4.2.5.9 1.1.6s.8-.4 1.3-.6c2.9-1.5 11.2-6 16.3-8.8 3.4-.3 13.4-1.3 14.7-1.5 5.5-.5 11.3-.2 17.1.1 3.7.2 7.5.4 11 0 1-.1 2-.3 2.8-.7.8-.4 1.5-1 .8-1.6-.6-.5-2-1.1-3.8-1.7 2.7.1 5.4.3 8 .5 6.5.5 13 1.1 19.4 1.3 2.2.1 4.5.2 6.7.4 1.7.2 3.7.2 5.4.6 1.1.2 3.9.3 4.6.9-.7.1-1.1-.2-1.5-.4zm-50.4-11.6.2.2c0 .1-.7.3-1.2.5-.3-.9-.9-1.8-1.9-2.6l1.1-.6c.4 1 1 1.8 1.8 2.5zm-2-3.1c0 .1 0 .1.1.2-.4.2-.9.5-1.3.7-.1-.1-.2-.1-.3-.2.4-.2.9-.4 1.5-.7z"/><path class="st7" d="m382.3 205.3 14.1-9.5s21.8-6.3 27-5.9c5.2.5 23.9-2.8 34.3 0 10.4 2.8 33 6.8 36.8 9.3 3.3 2.1 11.6 13.8 11.6 13.8l-11.4 87.5c0 11.7-24.3 21.3-54.2 21.3s-54.2-9.5-54.2-21.3L374.9 213l7.4-7.7z"/><path class="st5" d="M440.5 187.6c35.4 0 64.1 11.3 64.1 25.2S475.9 238 440.5 238s-64.1-11.3-64.1-25.2 28.7-25.2 64.1-25.2z"/><path class="st6" d="M440.5 199.9c28.7 0 52.9 7.7 59.7 18.1-9.7 11.9-31.4 19.1-59.7 19.1-28.4 0-49.5-8.2-60.3-18.2 6.1-10.8 30.7-19 60.3-19z"/><path class="st5" d="M440.5 187c36.2 0 65.6 11.5 65.6 25.8 0 14.2-29.4 25.8-65.6 25.8s-65.6-11.5-65.6-25.8 29.4-25.8 65.6-25.8zm0 49.7c33.7 0 61.1-10.7 61.1-24 0-13.2-27.3-24-61.1-24s-61.1 10.7-61.1 24 27.4 24 61.1 24z"/><path class="st8" d="M428.7 115.3c3.4-.2 6.6-1.1 10.1-.9 5.4.4 10.5 2.3 14.4 6.1 4 3.9 4.8 9.5 4.5 15-.3 4.8-1.4 9.9-3.6 14.2-2.2 4.2-4.5 8.4-6.6 12.6-2.8 5.7-6.1 11.4-6.7 17.8-.8-5.1-2.9-10-5.9-14.2-2.6-3.6-5.7-6.6-8.3-10.1-2.1-2.8-3.9-5.5-4.8-8.9-1-3.8-1.5-7.7-1.8-11.6-.5-7.9-.1-15.8-1-23.6.1 1 2.9 2.3 3.7 2.6 1.6.7 3.3 1 5 1h1z"/><path class="st9" d="M460.5 66.4c1.5-3.7 2.9-7.1 2.8-11.1-.1-7-1.4-14-3.5-20.7-2.2-7.2-5.1-14.2-9.3-20.4-2.4-3.5-5.5-6.7-9.5-8.3-2-.8-4.1-.6-6-1.4-1.9-.8-3.4-2.5-3.9-4.5-.2 1.2-.5 2.5-1.2 3.4-.8 1.1-2.1 1.8-3.3 2.4-11.5 6.3-16.4 18.3-17.5 30.9-.8 9.3-1.4 19.1 1.8 28 1.1 3 2.9 5.6 4.6 8.2 2 2.9 4 5.9 6.3 8.6 2 2.3 4.1 4.5 6.2 6.7 5.6 6.1 10.4 12.8 14.4 20-.4-.7 1.6-3.4 1.9-4.1.7-1.6 1.2-3.3 1.8-4.9 1.3-3.8 2.9-7.5 4.5-11.2 3.3-7.1 6.9-14.2 9.9-21.6z"/><path class="st8" d="M428 88.3c2.9 3.2 5.6 6.6 8.1 10.1 1.2 1.7 2.4 3.5 3.5 5.3.6.9 1.1 1.9 1.7 2.8.3.5 1 1.1.9 1.8.7-15.8-.9-31.6-2.5-47.3-.4-3.5-1.3-7-1.8-10.5-.6-4-1.3-8-1.9-11.9-1.3-7.9-2.6-15.9-3.8-23.9-.7-4.9-1.4-9.9-.9-14.8-.4 1.2-.7 2.5-1.4 3.5-.8 1.1-2.1 1.8-3.3 2.4-11.5 6.3-16.4 18.3-17.5 30.9-.8 9.3-1.4 19.1 1.8 28 1.1 3 2.9 5.6 4.6 8.2 2 2.9 4 5.9 6.3 8.6 2 2.5 4.2 4.6 6.2 6.8z"/><g><path class="st9" d="M379 78.6c-5.8-1.4-12.1-2.1-18.1-2-4 .1-8 .3-11.9 1.2-3.9 1-7.7 2.7-10.5 5.6-1.6 1.6-2.9 3.7-5.1 4.3-1.4.4-3.1.3-4.2 1.2 1.5 0 3.4.3 4.5 1.5 1.1 1.1 1.8 2.6 2.8 3.8 2.9 3.5 7.9 5.9 11.9 7.9 7 3.5 14.4 6.2 22 8.1 6.2 1.5 12.5 1.7 18.7 3.1 5.4 1.2 10.5 3.2 15.6 5.3 6.5 2.7 13 5.5 19.4 8.3 2.2 1 4.4 1.9 6.3 3.4-.5-.4-1.2-2.6-1.5-3.3-.6-1.4-.9-3.1-1.3-4.6-1-3.1-2.2-6.2-3.6-9.1-2.8-5.8-6.5-11.2-10.9-15.8-9.3-9.6-21.2-15.8-34.1-18.9z"/><path class="st8" d="M369.5 102.4c-2.4-.9-4.7-1.9-7-3-9.7-4.6-19.1-10.7-29.8-11-1 0-2.8-.2-3.5.6 1.6.2 3.3.3 4.5 1.5 1.1 1.1 1.8 2.6 2.8 3.8 2.9 3.5 7.9 5.9 11.9 7.9 7 3.5 14.4 6.2 22 8.1 6.2 1.5 12.5 1.7 18.7 3.1 5.4 1.2 10.5 3.2 15.6 5.3 6.5 2.7 13 5.5 19.4 8.3 1 .4 2 .8 3 1.3.8.4 1.4 1 2.2 1.3-3.4-5.1-9.5-8.3-14.8-10.8-14.5-6.9-30.2-10.5-45-16.4z"/></g><g><path class="st8" d="M443.4 230.7c0-.9 0-1.9-.1-2.8-.2-9.2-1.9-43.6-2.2-48.2-.3-4.6-.5-9.3-.7-13.9v-1.4c-.7-5.4-1.9-10.8-3.1-16-1.7-7.7-3.8-15.6-4.1-23.8-.1-2.1-.3-3.4-.7-5.2-.1-.5-2.7-17.5-2.8-18l1.1-.2c.1.5 2.7 17.5 2.8 18 .3 1.8.6 3.1.7 5.4.3 8.1 2.1 15.9 3.8 23.5.7 3.3 1.5 6.6 2.1 10-.2-6.8-.2-13.5-.1-20.3.1-4.7.2-9.3.4-13.9l.7-13.9c.4-9.3.7-18.5.9-27.8.1-4.6.1-9.3.1-13.9s0-9.3-.1-13.9c.2 4.6.3 9.3.4 13.9.1 4.6.2 9.3.2 13.9 0 9.3-.1 18.6-.3 27.9-.1 4.6-.3 9.3-.5 13.9s-.2 9.3-.2 13.9c0 9.3.2 18.5.7 27.8.2 4.6.9 9.1 1.2 13.7.3 4.6 1.9 39.1 2.2 48.4 0 1 .1 1.6.1 2.9-.2 1.4-2.5 1-2.5 0z"/><path class="st8" d="M452 124.6c-.3 8.2-2.3 16.3-4.4 23.8-1.4 5.2-2.4 10.6-3.1 16v1.4c-.2 4.6-.4 9.3-.7 13.9-.3 4.6-.6 9.2-.7 13.8-.3 9.2-1.3 25.1-1.5 34.3 0 .9.1 1.2-.1 2.8-.2 1.9-2.4 1.6-2.4.6s0-2.5.1-3.5c.2-9.3 1.3-25.1 1.7-34.4.2-4.6.5-9.3.8-13.9l.9-13.8c.5-9.2.7-18.5.7-27.8 0-4.6-.1-9.3-.2-13.9-.2-4.6-.4-9.3-.5-13.9-.3-9.3-.4-18.6-.3-27.9 0-4.6.1-9.3.2-13.9s.3-9.3.4-13.9c-.1 4.6-.1 9.3-.1 13.9s0 9.3.1 13.9c.1 9.3.4 18.5.9 27.8l.7 13.9c.2 4.6.3 9.3.4 13.9.1 6.8 0 13.5-.1 20.3.6-3.4 1.1-6.8 1.8-10.1 1.7-7.6 3.7-14.7 4-22.8.1-2.2 0-3.6.4-5.5.1-.5.5-1.5.6-2.1l1.3.2c-.1.6-.3 1.3-.3 1.8-.3 2-.5 3-.6 5.1zM436.2 191.1c.2-4.6.5-9.3.8-13.9.1-1 .1-2 .2-3.1.7.2 1.4.5 1.9 1 0 .8-.1 1.5-.1 2.3-.3 4.6-.6 9.2-.7 13.8-.3 9.2-1.3 25.1-1.5 34.3 0 .9.1 1.2-.1 2.8-.2 1.9-2.4 1.6-2.4.6s0-2.5.1-3.5c.3-9.2 1.4-25 1.8-34.3z"/><path class="st4" d="M446.1 93.3c.4-1.3.4-2.7.3-4-.3-12.1-.9-24.2-1.5-36.4-.2-4.6-.4-9.3-1.1-13.9-.5-3.3-1-6.6-1.8-9.8-.8-2.8-1.7-5.7-2.1-8.6-.3-2.6-.5-5.8 1.1-8-1.2.3-2.1 1.4-2.4 2.6-.3 1.2-.3 2.5-.2 3.7.4 5.7.7 11.2.8 16.9.1 5.9-.1 11.8-.1 17.6v24c0 4 0 8 .1 12.1 0 1.4 0 2.8.6 4.1 1.5 3.8 5.2 3.1 6.3-.3z"/></g><g><path class="st9" d="M451.6 117.1c0-.3 0-.7-.2-1-.2-.2-.4-.3-.7-.3-5.3-1.5-10.7-5.5-13.9-9.9-3.7-5-4.5-11.1-1.5-16.6 2-3.7 5.2-6.7 8.7-9.2 12.4-8.9 29-11.8 43.7-7.6 1.3.4 2.8.8 4.1.4 1-.3 1.7-1.1 2.5-1.7 2.3-2 5.2-3.3 8.2-3.7-.1 2.7-1.7 5.2-3.7 7-2 1.8-4.4 3-6.8 4.4-8.2 4.8-15.8 11.5-22.3 18.3-2.9 3.1-5.5 6.4-8.2 9.7-1.1 1.3-2.3 2.6-3.5 3.9-1.6 1.8-4.4 5.8-5.5 7.9"/><path class="st9" d="M451 120.1c0-.3.6-3.7.4-3.9-.2-.2-.4-.3-.7-.3-5.3-1.5-10.7-5.5-13.9-9.9-3.7-5-4.5-11.1-1.5-16.6 2-3.7 5.2-6.7 8.7-9.2 6.5-4.7 14.2-7.7 22.1-8.9 4-.6 8.1-.8 12.1-.5 2.1.2 4.1.5 6.2.9 1.5.3 4 .4 5.3 1.3-3.4 4.8-7.7 9.2-11.5 13.7-5.5 6.7-11.1 13.4-16.5 20.1-1.1 1.3-2.3 2.6-3.5 3.9-1.6 1.8-5 7.2-5.5 9.1"/><path class="st8" d="M449.5 143.8c-2.1 6.5-4.4 13.3-5.7 20-.7 3.5-1.2 6.9-1.6 10.5-.3 3.4-.1 6.9-.7 10.2 1.4-8.6 4.7-16.9 8.9-24.5 4.9-9.1 10.7-18 17.6-25.5 5.4-5.8 11.1-11.2 17-16.4 7.5-6.7 15.2-13.1 22.2-20.2 2.4-2.5 4.8-4.9 7.5-7.2 2-1.7 4.2-3.9 6.6-5.2 1.6-.8 4.7-3.9 6.4-3.5-5.5-1.4-10.2 1.1-15 1.9-5.6.9-11 2.6-16 5.2-2.2 1.1-4.3 2.4-6.3 3.7-8 5.1-15.5 10.9-22.4 17.4-7.1 6.6-11.7 15.3-15.1 24.2-1.3 3-2.4 6.2-3.4 9.4z"/><path class="st9" d="M512.8 83.7c3-.5 9.1-2.3 12.2-2.2-1.9-.1-6.8 2.3-8.4 3-1.7.7-3.3 1.3-4.9 2.2-3.4 1.9-6.6 4.2-9.6 6.6-4.2 3.4-8.3 7-12.6 10.3-4.1 3.1-8.1 5.9-11.8 9.6-7.4 7.4-14.8 16-18.9 25.8-1.7 4.1-4.4 7.7-6.5 11.7-4.5 8.1-9.1 17.4-9.8 26.8.4-4.6.5-9.2 1.5-13.8 1.4-6.7 3.6-13.5 5.7-20 1-3.2 2.2-6.4 3.4-9.5 3.4-8.9 8.1-17.7 15.1-24.2 6.9-6.4 14.4-12.3 22.4-17.4 2.1-1.3 4.2-2.6 6.3-3.7 4.9-2.6 10.3-4.3 15.9-5.2z"/><g><path class="st9" d="M427.2 151.5c3.9 3.6 7.8 7.1 10.1 11.9 2.1 4.6 4.1 10.8 3.4 15.9.7-5.1 1.3-10.2 1.8-15.2.4-4.4 1.2-8.6 1-13.1-.2-5.1-.8-10.3-2.4-15.1-1.6-4.7-4.3-7.4-7.4-11-6.4-7.2-14.8-12.5-24.1-15.1-7-2-15.1-1.7-22.4-1.7h-4.5c-.9 0-3.8.5-4.5 0 1 .7 2.1 1.1 3.2 1.6 3 1.5 5.3 4.2 7.5 6.7 7 8 15.1 15 23.2 21.9 4.9 4.5 10.2 8.7 15.1 13.2z"/></g><g><path class="st9" d="M431.7 170.9c-.5-6.5 2.1-13 5.6-18.3 1.5-2.3 3.2-4.4 5.1-6.4 4.8-4.9 10.1-9.5 16.1-13 .6-.3 1.1-.6 1.7-1 5.3-2.9 18.4-7.6 23-6.6 1.8.4 2.5 2.7 2.4 4.4 0 1.7-.7 3.3-1.5 4.8-2.6 5.1-6.9 9.1-11 13.1-6.4 6.2-12.8 12.5-17.3 20.2-1.2 2-10.9 19.7-12.6 22 0 .1-11-13.2-11.5-19.2z"/></g></g></g><g id="mug_00000051361718144826896610000002993939700294810528_"><path class="st6" d="M513.8 409.9c0 12.9-28.9 16.4-53.1 16.4s-34.6-6.4-34.6-16.4c0-10 19.6-18.1 43.9-18.1 24.2.1 43.8 8.2 43.8 18.1z"/><path class="st10" d="M495.8 394.7c2.8-2.5 8.7-8.4 14.1-18 5.6-10.1 10.1-29.8 3.9-40.6-2.3-4-5.5-6.6-9.2-7.4-.8-.2-1.7-.3-2.6-.3-4.3 0-8.1 2.1-10.1 3.4l5.4 9c1.3-.8 3.1-1.5 4.7-1.5.4 0 .7 0 1 .1 1.3.3 2.3 1.1 3.2 2.7 1.5 2.6 1.9 7.4 1 13.1-.8 5.5-2.7 11.3-5 15.3-4.3 7.7-9 12.6-11.4 14.8l5 9.4z"/><path class="st10" d="M419.1 409.3c0 4.5 3.8 9.1 11.5 12.6 15.3 6.9 40.2 6.9 55.6 0 7.7-3.5 11.5-8 11.5-12.6v-82.8h-78.6v82.8z"/><path class="st11" d="M485.5 324.5c-7.2-3.2-16.8-5-27-5-10.3 0-19.9 1.8-27 5-4.1 1.9-7.1 4-8.7 6.4-1-1.4-1.5-2.8-1.5-4.3 0-3.9 3.6-7.7 10.2-10.7 7.2-3.2 16.8-5 27-5 10.3 0 19.9 1.8 27 5 6.6 3 10.2 6.8 10.2 10.7 0 1.5-.5 2.9-1.5 4.3-1.7-2.4-4.6-4.6-8.7-6.4z"/><path class="st6" d="M431.4 324.5c7.2-3.2 16.8-5 27-5 10.3 0 19.9 1.8 27 5 4.1 1.9 7.1 4 8.7 6.4-1.6 2.3-4.6 4.5-8.7 6.4-2.7 1.2-5.7 2.2-8.9 3-5.5 1.3-11.6 2-18.1 2-6.4 0-12.6-.7-18.1-2-3.3-.8-6.3-1.8-8.9-3-4.1-1.9-7.1-4-8.7-6.4 1.6-2.4 4.6-4.6 8.7-6.4z"/><path class="st10" d="M486.2 313.9c-15.3-6.9-40.2-6.9-55.6 0-15.3 6.9-15.3 18.2 0 25.1 15.3 6.9 40.2 6.9 55.6 0 15.4-6.9 15.4-18.1 0-25.1zm6.3 16.7c-1.6 2.2-4.4 4.3-8.3 6.1-2.5 1.2-5.4 2.1-8.5 2.9-5.2 1.3-11.1 1.9-17.3 1.9-6.1 0-12-.7-17.3-1.9-3.1-.8-6-1.7-8.5-2.9-3.9-1.8-6.7-3.9-8.3-6.1-.9-1.3-1.4-2.7-1.4-4.1 0-3.7 3.5-7.4 9.7-10.2 6.8-3.1 16-4.8 25.8-4.8s18.9 1.7 25.8 4.8c6.3 2.8 9.7 6.5 9.7 10.2 0 1.4-.4 2.8-1.4 4.1z"/><path class="st12" d="M478.9 361.6c-13.4 13.4-27 27.3-40.4 40.6-.1-.2-.1-.4-.1-.6v-39.4c0-.4 0-.4.5-.4h.3c2 .7 11 3.2 19.3 3.1 6.5-.1 17.1-1.7 19.8-3.2.2-.1.4-.1.6-.1zM478.8 404.6s-9.9 3.1-16.2 3.4c-5.3.3-13.4-.5-16.9-1.6-.1-.1 16.6-16.8 16.9-16.5 5.2 5.1 16.1 14.5 16.2 14.7z"/><path class="st13" d="M420.1 342.2v66.1c0 4.1 3.2 8.3 9.6 11.6.4-6.2-.9-18.6-2-24.7-1-5.4-4-44.3-7.6-53z"/></g><g><path class="st6" d="m36.6 432.7 321.1 17.6c3.6.2 6.8-.4 8.3-4.6l30.5-86.8c.6-1.7-1.5-3.2-4.7-3.4l-281.1-14.1c-3.2-.2-6.9 1.1-8.1 2.7L33 428.6c-1.6 2.1.1 4 3.6 4.1z"/><path class="st7" d="m101.1 337.5 20.2-194.2c.6-5.4 5.6-9.7 11.2-9.4l271.9 12.2c5.6.2 9.7 4.9 9.1 10.3l-20.2 194.2-292.2-13.1z"/><path class="st5" d="m99.1 336.5 20.2-194.2c.6-5.4 5.6-9.7 11.2-9.4l271.9 12.2c5.6.2 9.7 4.9 9.1 10.3l-20.2 194.2-292.2-13.1z"/><path class="st11" d="M29.2 417.5s72.2-70.9 75.2-70.7l237.3 12.1 52.8-8.4-1.8 13.6h0c0 .1 0 .2-.1.3l-28.7 80.5c-1.1 3.1-4.3 4.3-7.7 4.1L34.9 431.3c-2.4-.1-3.8-1-4-2.2l-1.7-11.6z"/><path class="st5" d="m33.2 419.9 324.4 17.9c3.4.2 6.4-.4 7.8-4.4l28.9-82.2c.6-1.6-1.5-3.1-4.5-3.2l-286.6-14.6c-3-.2-6.5 1-7.7 2.6l-65.8 80c-1.5 1.9.1 3.7 3.5 3.9z"/><path class="st14" d="M70.8 378.8c-2-.1-2.9-2.9-1.6-4.5l29-35.2c1.2-1.6 4.6-2.7 7.5-2.5L386 350.8c3 .2 5 1.6 4.4 3.2l-12.3 34.8c-1.2 3.3-4 5.5-7.1 5.3L70.8 378.8zM136.4 419.6l124.2 6.8c1.3.1 2.6-.5 2.9-1.3l15.3-31.1c.2-.6-.6-1.2-1.7-1.2L159.5 386c-1.2-.1-2.5.4-3 1L135 418.1c-.5.8.1 1.5 1.4 1.5z"/><path class="st15" d="m400.5 153.1-270-12.5c-2.5-.1-4.7 1.8-5 4.3L107 322.6l280.4 13L404.7 166l.8-7.2c.2-2.9-2-5.5-5-5.7z"/><path class="st16" d="M298.3 262.2c-13.7 11.5-15.8 30.9-4.8 43.3 11.1 12.5 31.2 13.3 44.9 1.9 13.7-11.5 15.8-30.9 4.8-43.3-11.1-12.5-31.2-13.3-44.9-1.9zm28.2 31.8c-5.6 4.7-13.8 4.3-18.3-.8s-3.6-13 1.9-17.6c5.6-4.7 13.8-4.3 18.3.8s3.7 13-1.9 17.6z"/><path class="st17" d="M339.7 262.2c.1 0 .2-.1.2-.2s-.1-.2-.2-.2l-49.2 9.9c-.1.1-.2.3-.3.4l49.5-9.9zM294.2 266.2c-.1.2-.3.3-.4.5l42.1-8.5c-.2-.1-.4-.2-.5-.3l-41.2 8.3zM339.2 290.4c.1 0 .2-.1.2-.2s-.1-.2-.2-.2l-10.8 2.2c-.1.2-.3.3-.4.5l11.2-2.3zM339.6 266.9c.1 0 .2-.1.2-.2s-.1-.2-.2-.2l-51.4 10.3c0 .1-.1.3-.1.4l51.5-10.3zM339.3 285.7c.1 0 .2-.1.2-.2s-.1-.2-.2-.2l-8.2 1.7c0 .1-.1.3-.1.4l8.3-1.7zM339.4 276.3c.1 0 .2-.1.2-.2s-.1-.2-.2-.2l-9.8 2c.1.1.2.2.2.4l9.6-2zM339.4 281c.1 0 .2-.1.2-.2s-.1-.2-.2-.2l-8.1 1.6c0 .1 0 .3.1.4l8-1.6zM308 277.9c.1-.2.2-.3.4-.5l-21.5 4.3c0 .1 0 .3-.1.4l21.2-4.2zM339.7 271.3c0-.1-.1-.2-.2-.2l-14 2.8c.2.1.3.2.5.3l13.6-2.7s.1-.1.1-.2zM305.6 283.1c0-.1.1-.3.1-.4l-19.3 3.9v.4l19.2-3.9zM339 304.5c.1 0 .2-.1.2-.2s-.1-.2-.2-.2l-37.7 7.6c.2.1.4.2.5.3l37.2-7.5zM339.1 299.8c.1 0 .2-.1.2-.2s-.1-.2-.2-.2l-43 8.6c.1.1.2.2.4.3l42.6-8.5zM310.3 314.9l24.7-5 .9-.6-26.5 5.3c.2.2.5.3.9.3zM339.1 295.1c.1 0 .2-.1.2-.2s-.1-.2-.2-.2l-46.8 9.4.3.3 46.5-9.3zM305.5 287.8c0-.1 0-.3-.1-.4l-18.7 3.8c0 .1 0 .3.1.4l18.7-3.8zM311.6 295.9c-.2-.1-.4-.2-.5-.3l-21.5 4.3c.1.1.1.2.2.4l21.8-4.4zM307.3 292.1c-.1-.1-.1-.2-.2-.4l-19.3 3.9c0 .1.1.2.1.4l19.4-3.9z"/><path d="m323.4 273 7.3-17.2c-10.5-3.6-23-1.5-32.4 6.4l11.9 13.4c3.8-3.2 8.9-4 13.2-2.6z"/><path class="st18" d="M343.2 264.1c-3.8-4.3-8.7-7.2-14.1-8.7l-6.4 17.5c2.2.6 4.2 1.8 5.7 3.6 4.5 5.1 3.6 13-1.9 17.6l11.9 13.4c13.7-11.5 15.9-30.9 4.8-43.4z"/><g><path d="M270.5 251.1c-4.6 0-9.1 1.7-12.7 4-9.4 6-13.3 20.3-23.4 25.1-5.6 2.6-12.3 2.8-17.7.5-5.2-2.3-9.5-8.5-14-11.8s-9.8-3.8-15.4-1.6c-3.6 1.5-6.7 4.6-9.4 7.4-3.8 4-8.1 7.7-13.1 10.1-5 2.4-10.8 3.4-16 1.9l-2.3 21.2 117.4 4.9 6.6-61.7z" style="fill:#d7eeff"/><path d="M270.5 251.1c-4.6 0-9.1 1.7-12.7 4-9.4 6-13.3 20.3-23.4 25.1-5.6 2.6-12.3 2.8-17.7.5-5.2-2.3-9.5-8.5-14-11.8s-9.8-3.8-15.4-1.6c-3.6 1.5-6.7 4.6-9.4 7.4-3.8 4-8.1 7.7-13.1 10.1-5 2.4-10.8 3.4-16 1.9" style="fill:none;stroke:#72bfed;stroke-width:.5;stroke-linecap:round;stroke-linejoin:round;stroke-miterlimit:10"/><path transform="rotate(-83.72 150.06474462 277.0378889)" class="st17" d="M119.1 276.8h62v.5h-62z"/><path transform="rotate(-83.72 169.63599441 277.85585173)" class="st17" d="M138.6 277.6h62v.5h-62z"/><path transform="rotate(-83.72 189.20724196 278.67280653)" class="st17" d="M158.2 278.4h62v.5h-62z"/><path transform="rotate(-83.72 208.77843595 279.49071937)" class="st17" d="M177.8 279.2h62v.5h-62z"/><path transform="rotate(-83.72 228.3497393 280.30772416)" class="st17" d="M197.3 280.1h62v.5h-62z"/><path transform="rotate(-83.72 247.92093909 281.1257428)" class="st17" d="M216.9 280.9h62v.5h-62z"/><path transform="rotate(-83.72 267.49218663 281.9426976)" class="st17" d="M236.5 281.7h62v.5h-62z"/></g><path style="fill:none;stroke:#8ac9f9;stroke-width:.5;stroke-linecap:round;stroke-linejoin:round;stroke-miterlimit:10" d="m354.1 242.1-199.3-8.3 7-64 199.3 8.3z"/><g><path class="st18" d="m214.1 228.2-49.6-2.1 5.3-47.9 49.6 2.1z"/><path class="st6" d="M206.5 201.6c-.9 8.4-8.6 16.3-16.5 16-7.9-.3-14.1-8.5-13.2-16.9.9-8.4 8.6-13.9 16.6-13.6 7.8.3 14 6.1 13.1 14.5z"/><path class="st5" d="M179.7 226.9s2.5-1.9 3.1-4.9c.4-2.1 1.5-8.3 1.5-8.3l12.5.5s-.3 6.2-.3 8.3c-.1 3 1.8 5 1.8 5"/><path class="st5" d="M202.6 201.8h-.2l.3-2c.7-6-3.1-10.8-9.3-11-6.2-.3-11 4.1-11.6 10.2l-.2 2h-.4c-1.8-.1-3.2 1.6-3.5 3.7-.2 2.1.8 4.1 2.6 4.2.3 0 .6 0 .8-.1.2 2.3.9 4.3 2.1 6.3 1.7 2.6 4.6 4.1 6.7 4.2 2.2.1 5.4-1.1 7.6-3.6 1.7-1.8 2.8-3.8 3.5-6 .2.1.4.1.7.1 1.8.1 3.4-1.8 3.7-3.9.2-2.3-1.1-4-2.8-4.1z"/><ellipse transform="rotate(-28.613 186.07313933 203.739651)" class="st15" cx="186.1" cy="203.7" rx="4.1" ry="3.8"/><ellipse transform="matrix(.8779 -.4789 .4789 .8779 -73.6954 119.448)" class="st15" cx="197.4" cy="204.2" rx="4.1" ry="3.8"/><path class="st15" d="M190.1 203.9c1-.8 2.4-.8 3.2.1"/><path class="st6" d="M180.9 199.2s-.9-5.7 4.2-5.6c3.1 0 6 3.6 9.9 5.4 2.1 1 7.5 2.8 7.5 2.8l.4-10.9-11.4-4-9.9 5.9-.7 6.4z"/><ellipse transform="matrix(.8779 -.4789 .4789 .8779 -65.9391 116.9943)" class="st6" cx="196.4" cy="187.8" rx="8.7" ry="8.1"/><ellipse transform="matrix(.8779 -.4789 .4789 .8779 -62.8044 119.6119)" class="st6" cx="203.1" cy="182.9" rx="4.8" ry="4.5"/></g><path class="st18" d="m293.8 189.7-65.6-2.7.7-6.5 65.6 2.7zM262.6 200.3l-35.7-1.5.7-6.5 35.7 1.5z"/><g><ellipse transform="rotate(-28.613 236.8576173 217.1053772)" class="st18" cx="236.9" cy="217.1" rx="12.2" ry="11.3"/><path class="st13" d="m233.6 211.9-1.2 10.8 9.7-5z"/></g><path class="st16" d="m346.6 223.2.3-2.2-.6-.1-.3 2.2h-.6l.8-5.8h-.6l-.8 5.8-.9-.1 1-7.4h-.6l-1 7.4h-.6l1-7.7-.6-.1-1 7.7h-.6l.8-5.8h-.7l-.7 5.8-1-.1.5-3.6h-.6l-.5 3.6h-.6l.5-3.6h-.6l-.5 3.5h-.6l.6-4.1-.6-.1-.6 4.2-.9-.1.4-3.3h-.6l-.4 3.3h-.6l.6-4.4-.7-.1-.6 4.4h-.6l.7-4.7h-.6l-.7 4.7-.9-.1.9-6.3h-.6l-.9 6.3h-.6l1.2-8.6h-.7l-1.1 8.5h-.6l.5-3.8-.6-.1-.5 3.9-1-.1.8-5.2h-.6l-.8 5.2h-.6l1-7.2h-.6l-1 7.1h-.6l1.2-8.5-.6-.1-1.2 8.6-.9-.1.8-6-.6-.1-.8 6.1h-.6l.7-5.3h-.6l-.7 5.2h-.7l.5-3.6h-.6l-.5 3.6-.9-.1.4-2.4-.7-.1-.3 2.5h-.6l.4-2.8h-.6l-.4 2.7h-.9l.7-5.2-.6-.1-.7 5.3-.6-.1.9-7.1h-.6l-1 7.1h-.6l1.3-9.1h-.6l-1.3 9h-.9l1.3-9.1h-.7l-1.2 9.1-.6-.1.9-6.3h-.7l-.8 6.3h-.6l.5-4.2h-.6l-.5 4.1h-.9l.4-3-.6-.1-.5 3.1-.6-.1.7-4.6-.6-.1-.7 4.7h-.6l1.2-8.5-.6-.1-1.2 8.5h-.9l1-7.2h-.6l-1 7.2-.6-.1 1.2-8.8h-.6l-1.2 8.8h-.7l1.1-7.4-.6-.1-1.1 7.4h-.9l.7-5h-.6l-.7 5-.6-.1.8-5.7-.6-.1-.8 5.8h-.6l.5-3.6h-.6l-.5 3.5h-.9l.4-3.6h-.6l-.4 3.6-.7-.1.6-4.1h-.6l-.6 4.1h-.6l.5-3.3-.6-.1-.5 3.3h-.9l.6-4.4h-.6l-.6 4.4-.6-.1.6-4.6-.6-.1-.6 4.7h-.6l.8-6.3-.6-.1-.9 6.3h-.9l1.2-8.5h-.6l-1.2 8.5-.6-.1.5-3.8h-.6l-.5 3.8h-.6l.7-5.2-.6-.1-.7 5.3-.9-.1.9-7.1-.6-.1-.9 7.2-.6-.1 1.1-8.5h-.6l-1.2 8.5h-.6l.9-6.1h-.7l-.8 6.1-.9-.1.7-5.2h-.6l-.7 5.2-.6-.1.5-3.5-.6-.1-.5 3.6h-.6l.3-2.5h-.6l-.3 2.5-1-.1.4-2.7-.6-.1-.4 2.8-.6-.1.7-5.2h-.6l-.7 5.2h-.6l1-7.2h-.6l-1 7.2-.9-.1 1.2-9.1h-.6l-1.2 9.1h-.6l1.2-9.1-.6-.1-1.2 9.1h-.7l.9-6.3-.6-.1-.9 6.4-.9-.1.6-4.1h-.6l-.6 4.1h-.6l.4-3.1h-.6l-.4 3h-.6l.6-4.7h-.6l-.6 4.7-.9-.1 1.1-8.5h-.6l-1.2 8.5h-.6l1-7.2h-.6l-1 7.1h-.9l1.2-8.8h-.6l-1.2 8.7h-.6l1-7.4h-.6l-1 7.4h-.6l.6-5h-.6l-.6 4.9h-1l.8-5.8h-.6l-.8 5.7h-.6l.5-3.6h-.6l-.5 3.6h-.6l.5-3.6h-.6l-.5 3.5-3.1-.1v.5l3 .2-.5 3.6h.6l.5-3.6h.6l-.4 3.6h.6l.5-3.5h.6l-.8 5.5h.6l.8-5.5.9.1-.7 4.9.6.1.7-5h.6l-1 7.2h.6l1-7.1h.6l-1.1 8.5h.6l1.1-8.5 1 .1-1 6.8.6.1 1-6.9h.6l-1.2 8.3h.7l1.1-8.2h.9l-.6 4.7h.6l.6-4.7.6.1-.4 3h.6l.4-3h.6l-.5 4.2h.6l.5-4.1h1l-.9 6.1h.6l.9-6.1.6.1-1.2 8.8h.6l1.2-8.8h.6l-1.2 8.8.6.1 1.2-8.8h.9l-.9 6.9h.6l.9-6.9.6.1-.7 5.2h.6l.8-5.2h.6l-.4 2.8h.6l.4-2.7h.9l-.4 2.5h.7l.3-2.5.6.1-.5 3.5.6.1.5-3.6h.6l-.7 5.2.6.1.7-5.2h.9l-.7 5.8h.6l.8-5.8.6.1-1.2 8.2h.7l1.1-8.2h.6l-1 6.9h.7l.9-6.8h.9l-.7 5.2.6.1.7-5.3.6.1-.5 3.8h.6l.5-3.8h.7l-1.2 8.3h.6l1.2-8.2h.9l-.9 6 .7.1.8-6.1.6.1-.6 4.6.6.1.6-4.7h.6l-.6 4.4h.6l.6-4.3h.9l-.4 3.3h.6l.4-3.3.7.1-.6 4.1h.6l.6-4.1h.6l-.5 3.6h.6l.5-3.6.9.1-.5 3.6h.6l.5-3.6.6.1-.7 5.5h.6l.7-5.5h.6l-.6 5h.6l.6-5 1 .1-1 7.1.6.1 1-7.2.6.1-1.2 8.5h.6l1.2-8.5h.6l-.9 6.9h.6l.9-6.9.9.1-1.1 8.2.6.1 1.1-8.3.6.1-.6 4.6.6.1.7-4.7h.6l-.4 3 .6.1.4-3.1.9.1-.6 4.1h.6l.6-4.1h.6l-.8 6.1h.6l.8-6h.6l-1.2 8.8h.6l1.2-8.8 1 .1-1.2 8.8h.6l1.2-8.8h.6l-1 6.9.6.1 1-6.9h.6l-.7 5.2.6.1.7-5.3.9.1-.4 2.7.7.1.3-2.8h.6l-.3 2.5.6.1.3-2.5h1l-.5 3.6h.6l.5-3.5h.6l-.7 5.2h.6l.7-5.2h.6l-.8 5.8h.6l.8-5.7h.9l-1.1 8.3h.6l1.1-8.2h.6l-.9 6.9h.6l1-6.9h.6l-.7 5.3h.6l.7-5.2h.9l-.5 3.9h.6l.5-3.9.6.1-1.1 8.2.6.1 1.1-8.3h.6l-.8 6.1h.6l.8-6h1l-.7 4.7h.6l.7-4.7.6.1-.6 4.4h.6l.6-4.4h.6l-.5 3.3.7.1.4-3.3h.9l-.5 4.1.6.1.5-4.2.6.1-.5 3.5.7.1.4-3.6h.7l-.5 3.6h.6l.5-3.5h.9l-.8 5.5h.6l.8-5.5.6.1-1 7.4h.6l1-7.4h.6l-1 7.2h.7l.9-7.1h.9l-.7 5.5h.6l.8-5.5.6.1-.3 2.2h.6l.3-2.2 2.7.1.1-.5z"/></g><g><path class="st6" d="M226.2 532.7c-1.4 0-3.4-.9-3.5-2.3 0-1.4 1.6-2.2 2.2-2.4l117.7-48.1c.5-.2 1.3-.2 1.7 0l4.8 2.7c.4.3.2.6-.3.9 0 0-115.8 47.6-117.7 48.1-1.9.5-3.5 1-4.9 1.1z"/><path class="st22" d="M349.3 477.9c.2-2.5-1.2-5.5-3.2-6.7-.9-.5-1.7-.6-2.4-.3l-3.2 1.3 4 9.8 3.2-1.3c.9-.4 1.5-1.3 1.6-2.8z"/><ellipse transform="rotate(-22.317 342.60208576 477.04923946)" cx="342.6" cy="477" rx="3.2" ry="5.3"/><g><path class="st4" d="M346.9 479.1c.2-2.7-1.3-5.9-3.5-7.2-.9-.6-1.8-.7-2.6-.3l-79.3 32.2 4.3 10.5 79.3-32.2c1-.4 1.7-1.4 1.8-3z"/></g><g><path class="st4" d="M267.2 512c.2-3-1.5-6.5-3.8-7.9-1-.6-2-.7-2.8-.4L227.8 517l4.7 11.5 32.9-13.4c.9-.3 1.7-1.4 1.8-3.1z"/><ellipse transform="rotate(-22.317 230.17697829 522.81710738)" cx="230.2" cy="522.8" rx="3.8" ry="6.2"/><g><path class="st22" d="M234.1 525.2c.2-2.8-1.4-6.1-3.5-7.4-1-.6-1.9-.7-2.6-.4l-3.5 1.4 4.4 10.7 3.5-1.4c.9-.3 1.5-1.3 1.7-2.9z"/><ellipse transform="rotate(-22.317 226.66474358 524.25095943)" cx="226.7" cy="524.2" rx="3.5" ry="5.8" style="fill:#75726d;stroke:#000;stroke-width:.5;stroke-linecap:round;stroke-linejoin:round;stroke-miterlimit:10"/></g></g></g><g><ellipse class="st6" cx="421.9" cy="521.4" rx="65.6" ry="36.5"/><ellipse class="st5" cx="418" cy="514.1" rx="65.6" ry="36.5"/><ellipse class="st10" cx="418" cy="511.9" rx="65.6" ry="36.5"/><path class="st6" d="M420.3 545.3c26.9 0 48.8-11.9 48.8-26.7 0-14.7-21.8-26.7-48.8-26.7s-48.8 11.9-48.8 26.7c0 14.7 21.8 26.7 48.8 26.7z"/><path class="st1" d="M412 471c-26.2.6-46.7 12.2-46.7 36.3 0 17.9 22.3 29.3 48.4 29.3s47.4-12.1 47.4-29.1c0-25.7-21.5-37.2-49.1-36.5zm2.3 35.1c-8.1 0-22.7-4.1-22.7-7.7 0 0 14.4-6.4 22.6-6.4 8.9 0 21.5 6.4 21.5 6.4 0 1.8-13.2 7.7-21.4 7.7z"/><path class="st1" d="M413.8 493.9c5.8 0 10.9 1.4 13.5 3s3.6 2.8 3.6 2.8 4.4-.8 3.7-3c-.7-2.2-8.2-10.6-11.5-12.2-3.3-1.5-6.3-2.7-10.8-1.5-4.5 1.2-24.1 4.9-24.1 4.9l5.5 13.3s3.1-2.4 6.3-4.4c2.5-1.3 8.1-2.9 13.8-2.9z"/><path d="M411.8 465.5c-27.9.7-47.7 14.9-47.7 36.7 0 5.3 3.3 8.7 5 10.5 1.1 1.2 2 2.7 3.4 3.3 2.3.9 4.8-.7 7.2-.8 5.7-.3 8.3 11.6 13.9 13 4.3 1.1 10-6.1 14.3-4.9 2.9.8 5.2 3.3 8 4.3 3.7 1.3 7.8-.1 11.2-2.3 3.4-2.2 10.9-.7 13.4-3.8 3.8-4.7 5.6 8.6 9.8 6.7 4-1.8 2.1-15 4.8-16 3.4-1.2 2.6 2.1 5 .5 3.1-2.1 2.7-4.7 2.7-10.7.3-21.6-21.7-37.2-51-36.5zm21 30.4c-1 2.9-9.8 7.2-18.5 7.3-8.6.1-17.4-1.9-20.6-8.5 0 0 2.4-8.1 9.5-6.5 3.1.7 4.1 1.4 8.2 1.1 4.6-.4 4.9-3.3 8.6-1.7 3.7 1.6 4.1 5.9 7.3 4.9 3.5-1.1 6.3.1 5.5 3.4z" style="fill:#f5bdce;stroke:#000;stroke-width:.5;stroke-linecap:round;stroke-linejoin:round;stroke-miterlimit:10"/><path class="st15" d="M432.8 495.9c1.7-2 2.1-4 2.1-4M392.3 490.1s.2 2.3 1.5 4.6M452.6 501.9l-2.1 3.3M396.9 471.6l-2.1 3.2M397.9 511.3l-2 3.2M442.5 475.9l-3.5-1.1M379.4 485.3l-3.6-1.1M423.8 476.4l-3.5-1.1M426.6 511.3l-2-2.9M454.4 490l-2-2.9M385 498.4l-1.9-2.9M412.4 470.1l-1.9-2.9M442.5 484.2l-2.6.5M384.4 476.4l-2.6.5M375.8 494.5l-2.6.5M412.7 505.8l-2.5.6M437 501.7l-2.5.5"/></g><g><path class="st7" d="M72.7 348.6c.5-1.3 1.6-1.9 3.2-1.8-1.6 1.6-2.1 2.7-1.4 3.3 4.9 3.6 10.2 6.2 16 7.8l1.2-5c-5.8-1.9-10.5-3.8-13.9-5.9-.7-.4-1.3-.8-1.8-1.2-.9-.7-1.5-1.5-1.9-2.3-.4-1.6-.4-3 0-4.4.3-1.1 1.4-1.5 3.1-1.4-1.7 1.2-2.1 2.1-1.3 2.8 4.6 3.2 10.1 5.5 16.6 7.1l1-5c-6-1.4-11.3-3.3-16.1-6.1-.6-.3-1.2-.7-1.8-1-1.3-.8-1.6-2.2-.9-4.1.8-1.9 2.1-2.8 3.9-2.7-1.3 1.4-1.6 2.4-.9 3 4.9 2.5 10.3 4.5 16.1 5.8l.7-5c-5.8-1.3-11-3.1-15.5-5.7-.6-.3-1.2-.7-1.8-1.1-.9-.6-1.3-1.7-1-3.4.2-1.5.8-2.3 1.9-2.6.9-.1 1.4-.1 1.7.1.1.1.1.3-.1.4-.8.3-1 .8-.8 1.8.4.2.8.3 1.2.5 4.6 1.9 9.2 3.3 13.9 4.3-1.2-3.7-2.6-5.9-4.3-6.6-3.2-.8-6.3-1.9-9.3-3.2-.2-.2-.4-.3-.6-.3-1.5-.9-2.1-2.2-1.8-4.1-.1-1.5.9-2.5 2.7-2.8.5 0 .8 0 .9.1.2.1.2.3 0 .6-1.4 1-1.6 1.7-.8 2.1 4 1.5 8.1 2.6 12.4 2.9 2.1-1.5 3.3-3 3.7-4.4-6.3-1-11.2-2.3-14.9-4.1-1-.5-1.7-1.2-2.3-1.9-.4-1-.3-2.1.2-3.1.7-1.2 1.7-1.7 2.8-1.5.3.1.5.2.6.3.2.1.2.4.1.6-2.3-.1-1.9.6 1.3 2.1 3.3 1.4 8.2 2.5 14.7 3.1l1.3-5.6c-5.7-.8-11.4-2.3-17.1-4.3-.8-.3-1.5-.6-2.3-.8-.5-.3-.7-.7-.6-1l.1-2.6c.3-.7.7-.9 1.4-.7.6.2 1.3.4 2 .7 5.6 1.7 11.3 3 17 3.7l.8-5.9-17-3.3-.9-.2c-.2 0-.2 0-.4-.1-.3-.1-.5-.4-.6-.8l.1-3.4c0-.7.3-1 1-.6.5.1.9.2 1.3.4 5.8 1.4 11.6 2.4 17.5 2.7l.8-5.8-17.5-2.6-1.3-.2c0-1.5.2-4.3.4-8.3.1-2.9 3-9.2 6.6-12.1 6.1-4.7 12.6-7.4 23-6.3 11.2 1 28.3 3.7 36.8 6.4 7.8 2.4 13.6 5.4 17.4 8.9 2.2 2.1 3.8 4.4 4.8 7.2.5 1.4.8 4.8.8 10.1 0 1.9 0 3.8-.1 5.6 0 1.1-1.1 2-2.4 2h0c-.6.1-1 .8-1.3 2.1-.2 1.3 0 2.2.7 2.8 1 .6 1.4 1.5 1.4 2.4 0 1-.6 1.6-1.7 1.8-1.5 0-2.4.7-2.7 2.1-.4 1.4 0 2.3 1 2.8.9.5 1.5 1.3 1.5 2.3.1 1.5-.4 2.2-1.5 2.1-1.8.1-2.8.9-3 2.5-.2 1.5.2 2.3 1.2 2.6.9.2 1.2.8 1.4 1.9-.3 1.9-1 2.9-2.2 2.8-1.2-.1-1.9.6-2 2.1-.2.9.4 1.5 1.8 1.9.6.3.8.9.7 1.8-.2 1.1-.6 2-1.5 2.4-1.4.6-2 1.5-2.3 2.7-.2.6.2 1.1 1 1.7.7.4 1.1 1 1 1.9.1 1-.4 1.8-1.4 2.6-1.1.8-1.8.9-2.1 2.3-.3 1.4 2.6 1.9 2.4 3.7-.3 2.3-2 1.9-3.1 2.4-1.2.8-1.4 1-1.6 2.5-.2 1.5 3.1 1.2 3.1 3.6-.5 3.1-3 2.3-3.1 4.5 0 0 .5 2.6.4 3.4-.8 7.9-4.1 14.2-9.8 19.1-6.4 5.5-13.6 8.3-21.2 9.6-9.3 1.6-24.5.5-35.7-3.7-11.1-4.1-16.7-11.8-16.7-11.8-1.8-2.7-2.5-5.4-2-8.1-.2-2.3-.6-4-1.3-5.1l-1.3-2.1c-.6-2.2-.6-4.5.3-6.7z"/><path d="m85.8 281.9.8-5.7 17.5 2.6-.8 5.8c-5.9-.4-11.7-1.3-17.5-2.7zM102.3 289.9l-.8 5.9c-5.7-.7-11.4-2-17-3.7l.7-5.5 17.1 3.3zM79.8 320.2c.1-.2.2-.4.1-.4l.6-2.9c3 1.3 6 2.4 9.3 3.2 1.7.7 3.1 2.9 4.3 6.6-4.7-.9-9.3-2.4-13.9-4.3-.4-.2-.8-.3-1.2-.5-.2-.8 0-1.4.8-1.7zM84.9 303.4c-3.2-1.5-3.6-2.2-1.3-2.1.1-.2.1-.5-.1-.6l.4-4.1c5.6 2 11.3 3.5 17.1 4.3l-1.3 5.6c-6.6-.6-11.5-1.7-14.8-3.1zM81.7 310.5c.2-.3.3-.5 0-.6l.4-2.8c3.7 1.8 8.6 3.1 14.9 4.1-.4 1.4-1.6 2.9-3.7 4.4-4.3-.3-8.5-1.4-12.4-2.9-.8-.5-.6-1.2.8-2.2zM94.7 332.4l-.7 5c-5.8-1.3-11.2-3.3-16.1-5.8-.8-.6-.5-1.6.9-3l.4-1.9c4.5 2.6 9.6 4.4 15.5 5.7zM93.6 342.6l-1 5c-6.6-1.6-12.1-3.9-16.6-7.1-.9-.7-.4-1.6 1.3-2.8l.2-1.2c4.8 2.8 10.2 4.8 16.1 6.1zM76.1 345.9c.5.3 1.1.8 1.8 1.2 3.4 2.1 8 4 13.9 5.9l-1.2 5c-5.8-1.6-11.2-4.2-16-7.8-.6-.6-.2-1.7 1.4-3.3l.1-1zM77 362.8c.1-1.4 1.2-1.9 2.3-1.7 1.7.3 2.5 1.4 2.6 3.3l-.4 10.4c-1.8-1.4-3.7-3.6-4.8-5l.3-7zM84.8 365.4c.5-1.2 1.1-2 2.9-1.3 1.4.7 2.3 1.4 2.3 3.4l-.2 9c.4 1.7.9 4 2.8 5.4-2.5-1.1-4.2-2.2-6.2-3.3-1.3-1.4-2.1-3-2.1-4.4l.5-8.8zM94.2 371.5c.2-2.4 1.4-3.8 2.6-3.6 2.4.4 3.4 1 3.6 3.2l-.2 7.6c-.1.6.3 2.7.6 3.3.3.8 1.1 2.7 1.1 2.7s-4.3-1.3-5.6-1.5c-1.3-1.3-2.1-2.4-2.4-3.8-.5-2.5.1-5.2.3-7.9zM96 252.8c1.8-.9 6.4-3.1 5.6-1.8-5 2.5-8.7 7.2-10.3 11.6-1.5 4.4-1.9 6.3-4.4 5.7-1.6-.4-.8-3.4.4-6.2 1.4-2.8 4.6-6.5 8.7-9.3z"/><path class="st7" d="M104.4 316.5c-1.1-1.2-2.3-1.8-3.8-1.8s-2.8.6-3.9 1.7-1.7 2.6-1.7 4.2.5 3 1.5 4.2c1.1 1.2 2.4 1.8 3.9 1.8 1.6 0 2.8-.5 3.9-1.7 1.2-1.2 1.7-2.6 1.7-4.2 0-1.5-.5-3-1.6-4.2z"/><path d="m99.5 350.2 1-5.2 28 6.4c2 .5 4 .5 6 .2l17.5-2.1-.6 3.2-16.9 4.4c-2 .3-4 .3-6-.1l-29-6.8zM101.3 339.8l1-5.6 29.2 6.6c1.9.4 3.7.5 5.6.4l17.1-1.2-1 4.2-17.2 2.5c-1.8.2-3.7.1-5.8-.4l-28.9-6.5zM147 293l-5.6-.8-30.6-5.9 1.1-5.9 33.4 6 20.4 2.2-1.2 5.6L147 293zM139.9 297.2c1.1.2 2.4.4 3.5.4l20 1-1.3 6-18.6-.3c-1.6 0-3.1-.2-4.6-.6L109 297l1.1-6 29.8 6.2zM158.7 319.4l-1.3 5.8-16.7.4c-1.3.1-2.6.1-3.8-.2l-21.2-3.8c-2.9-.9-4.5-1.7-4.6-2.6-.7-2.1-2-3.9-4-5.5l31.3 5.4c1.2.2 2.4.2 3.6.2l16.7.3zM161.1 308.8l-1.4 6.1-18.9-.3c-1.1.1-2.2 0-3.4-.2l-30.4-6 1-5.9 31.5 5.8c1 .2 2.1.3 3.2.2l18.4.3zM106.6 327.3c2.4-1.5 4.9-1.8 7.7-1l22.4 4.1c1 .2 2 .2 3.1.2l16.5-.5-1.1 4.7-18.1 1.1c-1.2.2-2.3.2-3.4-.1l-27.2-5.1c-2.3-.8-2.3-2 .1-3.4M117.1 376.8c.2-2.4 1.5-3.4 3.8-2.9 3.2.4 4.9 1.7 4.9 4l-.1 4.6c-.3 1.2.4 2.5 1.2 3.6l-6.5.5c-1.4-.2-3.4-2.1-3.5-3.3l.2-6.5zM107.7 371.2c2.4 0 3.8 1.4 3.9 4.3l-.1 6.6c-.1 1 1 3.1 2.3 4.3l-5.6-.6c-2-1-3.6-2.2-3.5-4.3l.2-7.7c0-1.6 1-2.7 2.8-2.6zM132.8 362.2l16.9-2.5-.8 4-16.6 3.9c-1.8.3-3.6.2-5.4-.3l-29.1-7 .8-4.6 28.7 6.3c1.8.4 3.6.5 5.5.2zM98.5 267.5c-.3 1.3-1.4 2.3-2.9 2-1.1-.3-1.6-1-1.5-2.3 0-2.2.8-4.2 1.8-6.1.5-1 2.4-4 3.7-5.3 1.9-2 4.4-3.8 6.7-4.6 1.6-.6 3.4-.8 5.3-.6.7.1 1.6.6 1 .8-8.1 2.3-12.2 7.3-14.1 16.1zM113 268.8c.5-3.3 1.4-5.4 2.9-8.5 1.1-2.7 6.9-6.4 9.3-7.3 1.9-.7 4.4-.3 5.9.4.3.1.3.6 0 .7-4.1 1.4-6.8 3.4-8.9 6.1-2.2 2.9-3.6 6.7-3.7 9.6-.2 2.9-1.8 3.5-3.4 3.3-1.8-.3-2.3-2.8-2.1-4.3zM125.1 270.9c.7-4.8 1.7-8.6 4.6-11.5 1.6-1.6 5.8-4.4 8.7-5 2.5-.5 7.1.4 7.1 1.3-3.5.6-6.5 2-8.9 4-2.5 2-4.1 4-4.8 6.9-.8 3-.8 3.9-.9 5.3-.3 2.2-2 2.9-3.4 2.6-1.9-.2-2.6-1.5-2.4-3.6z"/><path d="M104.8 271.4c-1.5-.3-2.1-1.6-1.9-3.8 1.2-4.8 2.8-8.9 5-11.2 1.1-1.2 5.5-3.6 8-4.4 2.4-.7 6.4-.2 6.4.6-3.2.8-6.1 2-8.6 3.6-2.6 1.7-4.5 5.8-5.7 12.5-.7 1.6-1.5 2.9-3.2 2.7zM152.8 260.6c-2.9.7-5.3 2.3-7 4.8-1.8 2.4-2.1 5.7-2.1 8.2-.2 2.2-1.6 4-2.9 3.8-1.4.1-2.8-1.2-2.9-3 0-3.5.2-5.5 1.5-8.1 2.6-4.7 6.1-7.8 9.3-8.5 2.4-.8 4.8-.2 6.3.6 1.4.7.7 1.4-2.2 2.2z"/><g><ellipse class="st6" cx="123.7" cy="516.6" rx="52.8" ry="22.7"/><path d="M64.9 502.2c8.9-7.1 26.4-12 46.5-12 19.6 0 36.7 4.6 45.8 11.4h7V513c0 12.6-23.6 22.7-52.8 22.7-29.2 0-52.8-10.2-52.8-22.7v-10.7l6.3-.1z" style="fill:#a09787;stroke:#000;stroke-width:.5;stroke-linecap:round;stroke-linejoin:round;stroke-miterlimit:10"/><ellipse class="st7" cx="111.5" cy="502.2" rx="52.8" ry="22.7"/><path d="M94.5 522.8c7.9 1.4 17.3 1.1 24 1.1l3.9-22.4-22 1.4-5.9 19.9z" style="fill:#a09787"/><path class="st7" d="M100.5 501h0l2-11.1h17.9l2 11.2h0c0 .2.1.4.1.5 0 2.6-5 4.8-11.1 4.8s-11.1-2.1-11.1-4.8c.1-.2.1-.4.2-.6z"/><ellipse class="st7" cx="111.5" cy="490.3" rx="9" ry="3.9"/><g><path class="st7" d="M116.5 395.5v94.2c0 1.2-2.2 2.2-5 2.2s-5-1-5-2.2v-94.2h10z"/><ellipse class="st7" cx="111.5" cy="395.5" rx="5" ry="2.2"/></g></g><path class="st11" d="M77 367.5c0 2.1.8 3.8 2.3 5.9 0 0 2.5 2.5 6.2 4.7.4 4 3.2 8.5 7.2 9.3l46.2 9.2s-5 2.5-8.1 1.9l-48.6-9.1c-4.9-1-8.1-5.9-7.3-11 .2 0 1-4.2 2.1-10.9z"/><g><path class="st7" d="M133.6 398.5c1.2-1.3 6.6.5 8.7-6.9l10.8-59.4c1-6.1 12.2-9.1 11.2-2s-11.1 59.9-11.1 59.9c-.5 2.7-1.1 5-4.9 7.4-3.4 2.1-8.8 2.7-14.6 2.3v-1.3z"/><path class="st7" d="M72.8 377.2c0-.2.8-5.5 2.4-14.7h0c.2 1.5.4 2.4.8 3.3.3 1.1.9 2.1.9 2.8-1 5.8-1.5 8.9-1.6 9.1-.7 4.4 2.1 8.7 6.3 9.5l49.9 10c1.9.4 3.9 0 5.6-1.1 1.8-1.2 2.9-3.1 3.3-5.2l10.9-58.9c.8-4.6 5.9-7.7 9.6-7.2 1.8.3 3.6 1.6 3.5 4.5-.3-4.6-6.8-3.2-9.5.7-.5.7-.9 1.5-1.1 2.3l-1.4 8.2-9.8 52.1c-.7 3.5-2.1 4.1-4 5.5-1.7 1.1-3.6 1.7-5.6 1.7-.7 0-1.3-.1-2-.2l-49.9-10c-5.6-1.1-9.3-6.7-8.3-12.4z"/></g></g></g></svg>